<?xml version="1.0" encoding="utf-8" standalone="no"?>
<!DOCTYPE svg PUBLIC "-//W3C//DTD SVG 1.1//EN"
  "http://www.w3.org/Graphics/SVG/1.1/DTD/svg11.dtd">
<!-- Created with matplotlib (https://matplotlib.org/) -->
<svg height="720pt" version="1.1" viewBox="0 0 720 720" width="720pt" xmlns="http://www.w3.org/2000/svg" xmlns:xlink="http://www.w3.org/1999/xlink">
 <metadata>
  <rdf:RDF xmlns:cc="http://creativecommons.org/ns#" xmlns:dc="http://purl.org/dc/elements/1.1/" xmlns:rdf="http://www.w3.org/1999/02/22-rdf-syntax-ns#">
   <cc:Work>
    <dc:type rdf:resource="http://purl.org/dc/dcmitype/StillImage"/>
    <dc:date>2021-08-12T16:15:41.148628</dc:date>
    <dc:format>image/svg+xml</dc:format>
    <dc:creator>
     <cc:Agent>
      <dc:title>Matplotlib v3.3.4, https://matplotlib.org/</dc:title>
     </cc:Agent>
    </dc:creator>
   </cc:Work>
  </rdf:RDF>
 </metadata>
 <defs>
  <style type="text/css">*{stroke-linecap:butt;stroke-linejoin:round;}</style>
 </defs>
 <g id="figure_1">
  <g id="patch_1">
   <path d="M 0 720 
L 720 720 
L 720 0 
L 0 0 
z
" style="fill:none;"/>
  </g>
  <g id="axes_1">
   <g id="patch_2">
    <path d="M 90 630 
L 648 630 
L 648 86.4 
L 90 86.4 
z
" style="fill:#ffffff;"/>
   </g>
   <g id="PolyCollection_1">
    <defs>
     <path d="M 115.363636 -169.626273 
L 115.363636 -151.587103 
L 120.648118 -152.656285 
L 125.932617 -151.610634 
L 131.217099 -148.987197 
L 136.501581 -146.401986 
L 141.78608 -147.182876 
L 147.070562 -150.725404 
L 152.355044 -150.91874 
L 157.639543 -153.363225 
L 162.92022 -149.486712 
L 168.204702 -143.900637 
L 173.489184 -143.923867 
L 178.773683 -145.5421 
L 184.058165 -146.535337 
L 189.342646 -148.102741 
L 194.627145 -152.295977 
L 199.911627 -149.121901 
L 205.196114 -149.633669 
L 210.476797 -152.773475 
L 215.761284 -148.351412 
L 221.045771 -147.172763 
L 226.330259 -145.867428 
L 231.614746 -144.844672 
L 236.899233 -143.233046 
L 242.18372 -144.736638 
L 247.468207 -153.587588 
L 252.752694 -156.227694 
L 258.033377 -155.12098 
L 263.317864 -154.726993 
L 268.602353 -150.655495 
L 273.88684 -149.050495 
L 279.171327 -152.045944 
L 284.455814 -155.601057 
L 289.740301 -165.314114 
L 295.024788 -185.828786 
L 300.309275 -214.326786 
L 305.589957 -266.893192 
L 310.874446 -325.37151 
L 316.158933 -396.905471 
L 321.44342 -460.657606 
L 326.727907 -508.163119 
L 332.012394 -548.763839 
L 337.296881 -540.776249 
L 342.581368 -521.246119 
L 347.865857 -481.137984 
L 353.146539 -443.914421 
L 358.431026 -426.244411 
L 363.715513 -432.470452 
L 369 -439.183946 
L 374.284487 -457.614753 
L 379.568975 -495.67263 
L 384.853462 -536.126263 
L 390.137949 -558.636399 
L 395.422436 -553.792359 
L 400.703119 -518.887286 
L 405.987606 -462.137201 
L 411.272093 -399.404123 
L 416.55658 -341.975786 
L 421.841068 -299.894735 
L 427.125555 -265.216188 
L 432.410042 -228.327488 
L 437.694529 -199.140584 
L 442.979017 -182.063814 
L 448.259699 -167.974072 
L 453.544186 -159.390268 
L 458.828674 -157.193075 
L 464.113161 -151.081118 
L 469.397648 -148.784291 
L 474.682135 -147.999644 
L 479.966622 -150.113351 
L 485.25111 -146.047355 
L 490.535597 -145.315116 
L 495.81628 -141.094117 
L 501.100767 -143.741891 
L 506.385254 -142.327789 
L 511.669741 -145.248677 
L 516.954228 -148.239842 
L 522.238716 -149.89236 
L 527.523203 -153.246324 
L 532.80769 -153.774198 
L 538.092177 -155.039969 
L 543.37286 -157.967022 
L 548.657347 -158.688378 
L 553.941834 -157.39908 
L 559.226322 -158.022457 
L 564.510809 -158.68957 
L 569.795296 -161.538997 
L 575.079783 -161.377726 
L 580.36427 -162.520734 
L 585.648757 -159.052958 
L 590.92944 -154.693043 
L 596.213927 -151.805454 
L 601.498414 -151.078335 
L 606.782903 -155.242845 
L 612.06739 -156.312288 
L 617.351877 -154.732282 
L 622.636364 -152.72706 
L 622.636364 -170.908366 
L 622.636364 -170.908366 
L 617.351877 -173.5542 
L 612.06739 -174.965312 
L 606.782903 -174.405896 
L 601.498414 -168.718301 
L 596.213927 -169.614878 
L 590.92944 -172.912169 
L 585.648757 -178.321313 
L 580.36427 -182.42624 
L 575.079783 -180.684976 
L 569.795296 -181.005715 
L 564.510809 -178.437374 
L 559.226322 -176.843505 
L 553.941834 -176.496135 
L 548.657347 -177.836221 
L 543.37286 -178.358552 
L 538.092177 -174.374098 
L 532.80769 -173.26819 
L 527.523203 -171.775212 
L 522.238716 -167.726537 
L 516.954228 -165.039075 
L 511.669741 -161.150518 
L 506.385254 -157.598234 
L 501.100767 -160.788586 
L 495.81628 -156.726735 
L 490.535597 -161.003903 
L 485.25111 -162.024556 
L 479.966622 -166.243558 
L 474.682135 -164.158306 
L 469.397648 -164.824604 
L 464.113161 -167.818773 
L 458.828674 -175.975437 
L 453.544186 -181.101674 
L 448.259699 -195.602894 
L 442.979017 -215.750032 
L 437.694529 -234.946939 
L 432.410042 -272.267261 
L 427.125555 -316.729421 
L 421.841068 -356.362978 
L 416.55658 -398.26296 
L 411.272093 -459.716015 
L 405.987606 -523.512711 
L 400.703119 -576.381505 
L 395.422436 -607.653806 
L 390.137949 -608.890909 
L 384.853462 -587.016943 
L 379.568975 -543.826409 
L 374.284487 -501.701391 
L 369 -483.69897 
L 363.715513 -474.390225 
L 358.431026 -467.787397 
L 353.146539 -487.540993 
L 347.865857 -527.107728 
L 342.581368 -571.958282 
L 337.296881 -592.778635 
L 332.012394 -604.592205 
L 326.727907 -565.830194 
L 321.44342 -518.963845 
L 316.158933 -453.493264 
L 310.874446 -375.894204 
L 305.589957 -309.707278 
L 300.309275 -245.7014 
L 295.024788 -208.159955 
L 289.740301 -184.50646 
L 284.455814 -174.993562 
L 279.171327 -172.073412 
L 273.88684 -167.838834 
L 268.602353 -167.809709 
L 263.317864 -173.019989 
L 258.033377 -173.909144 
L 252.752694 -175.968282 
L 247.468207 -174.155806 
L 242.18372 -162.716936 
L 236.899233 -160.284721 
L 231.614746 -162.438199 
L 226.330259 -163.650786 
L 221.045771 -163.915582 
L 215.761284 -165.075072 
L 210.476797 -170.266489 
L 205.196114 -166.204549 
L 199.911627 -167.454942 
L 194.627145 -170.280603 
L 189.342646 -164.94466 
L 184.058165 -162.892022 
L 178.773683 -160.885831 
L 173.489184 -159.70697 
L 168.204702 -158.626183 
L 162.92022 -165.376519 
L 157.639543 -171.540053 
L 152.355044 -168.152165 
L 147.070562 -167.832927 
L 141.78608 -164.035242 
L 136.501581 -161.805649 
L 131.217099 -164.577622 
L 125.932617 -168.584715 
L 120.648118 -170.620697 
L 115.363636 -169.626273 
z
" id="mee73a17d3d" style="stroke:#ff0000;stroke-opacity:0.35;"/>
    </defs>
    <g clip-path="url(#p19f77403b3)">
     <use style="fill:#ff0000;fill-opacity:0.35;stroke:#ff0000;stroke-opacity:0.35;" x="0" xlink:href="#mee73a17d3d" y="720"/>
    </g>
   </g>
   <g id="PolyCollection_2">
    <defs>
     <path d="M 115.363636 -140.260719 
L 115.363636 -126.474861 
L 120.648118 -124.92706 
L 125.932617 -129.413475 
L 131.217099 -131.808894 
L 136.501581 -131.458053 
L 141.78608 -132.537487 
L 147.070562 -130.893334 
L 152.355044 -128.708707 
L 157.639543 -130.086097 
L 162.92022 -129.65703 
L 168.204702 -129.138999 
L 173.489184 -128.398746 
L 178.773683 -126.478141 
L 184.058165 -124.574909 
L 189.342646 -124.669122 
L 194.627145 -124.324836 
L 199.911627 -127.771721 
L 205.196114 -128.436851 
L 210.476797 -124.39779 
L 215.761284 -121.731565 
L 221.045771 -121.833949 
L 226.330259 -121.817189 
L 231.614746 -121.339674 
L 236.899233 -126.104902 
L 242.18372 -128.638286 
L 247.468207 -126.653928 
L 252.752694 -127.264739 
L 258.033377 -125.748899 
L 263.317864 -127.326964 
L 268.602353 -126.457147 
L 273.88684 -125.878271 
L 279.171327 -127.584655 
L 284.455814 -134.245004 
L 289.740301 -146.403108 
L 295.024788 -167.03649 
L 300.309275 -199.715561 
L 305.589957 -234.704191 
L 310.874446 -262.712451 
L 316.158933 -285.474745 
L 321.44342 -323.435256 
L 326.727907 -357.370186 
L 332.012394 -393.340836 
L 337.296881 -417.021959 
L 342.581368 -417.23671 
L 347.865857 -407.228568 
L 353.146539 -384.958511 
L 358.431026 -361.35518 
L 363.715513 -345.627346 
L 369 -347.762941 
L 374.284487 -363.440391 
L 379.568975 -380.057202 
L 384.853462 -401.259549 
L 390.137949 -413.098232 
L 395.422436 -426.528951 
L 400.703119 -412.517231 
L 405.987606 -362.215808 
L 411.272093 -315.401059 
L 416.55658 -279.301887 
L 421.841068 -252.866497 
L 427.125555 -214.558392 
L 432.410042 -176.361855 
L 437.694529 -151.390778 
L 442.979017 -133.263101 
L 448.259699 -122.028739 
L 453.544186 -122.05811 
L 458.828674 -118.606102 
L 464.113161 -119.313174 
L 469.397648 -117.800985 
L 474.682135 -116.321084 
L 479.966622 -114.866565 
L 485.25111 -114.709091 
L 490.535597 -116.425102 
L 495.81628 -121.553105 
L 501.100767 -126.494147 
L 506.385254 -124.211808 
L 511.669741 -127.578567 
L 516.954228 -127.291683 
L 522.238716 -124.899285 
L 527.523203 -124.760002 
L 532.80769 -126.203486 
L 538.092177 -124.793395 
L 543.37286 -123.182056 
L 548.657347 -123.304646 
L 553.941834 -124.551686 
L 559.226322 -122.552751 
L 564.510809 -120.88885 
L 569.795296 -122.599832 
L 575.079783 -122.784267 
L 580.36427 -124.782691 
L 585.648757 -123.834437 
L 590.92944 -126.349695 
L 596.213927 -128.171736 
L 601.498414 -127.436932 
L 606.782903 -125.436818 
L 612.06739 -121.581217 
L 617.351877 -120.921343 
L 622.636364 -122.595333 
L 622.636364 -133.553384 
L 622.636364 -133.553384 
L 617.351877 -131.153052 
L 612.06739 -132.794418 
L 606.782903 -137.271155 
L 601.498414 -139.701278 
L 596.213927 -142.523611 
L 590.92944 -139.6586 
L 585.648757 -136.706371 
L 580.36427 -137.783083 
L 575.079783 -135.6605 
L 569.795296 -134.48767 
L 564.510809 -133.367694 
L 559.226322 -135.533548 
L 553.941834 -137.208747 
L 548.657347 -135.452349 
L 543.37286 -135.197535 
L 538.092177 -137.213736 
L 532.80769 -140.617905 
L 527.523203 -139.061452 
L 522.238716 -139.833813 
L 516.954228 -142.251389 
L 511.669741 -142.633893 
L 506.385254 -139.228464 
L 501.100767 -143.391203 
L 495.81628 -135.950844 
L 490.535597 -129.161077 
L 485.25111 -126.735945 
L 479.966622 -125.934511 
L 474.682135 -127.008858 
L 469.397648 -128.577876 
L 464.113161 -129.93119 
L 458.828674 -129.561531 
L 453.544186 -134.161764 
L 448.259699 -135.027982 
L 442.979017 -150.22741 
L 437.694529 -175.174506 
L 432.410042 -206.223339 
L 427.125555 -251.765525 
L 421.841068 -299.523302 
L 416.55658 -329.814261 
L 411.272093 -368.06577 
L 405.987606 -412.036968 
L 400.703119 -460.632411 
L 395.422436 -474.100752 
L 390.137949 -458.275437 
L 384.853462 -444.648597 
L 379.568975 -418.915102 
L 374.284487 -399.319074 
L 369 -380.412345 
L 363.715513 -379.489223 
L 358.431026 -399.441064 
L 353.146539 -427.931489 
L 347.865857 -451.180632 
L 342.581368 -460.788945 
L 337.296881 -461.910079 
L 332.012394 -438.927549 
L 326.727907 -403.350229 
L 321.44342 -371.625217 
L 316.158933 -331.608209 
L 310.874446 -308.165131 
L 305.589957 -275.142178 
L 300.309275 -234.54588 
L 295.024788 -193.72118 
L 289.740301 -164.079143 
L 284.455814 -148.207455 
L 279.171327 -140.996102 
L 273.88684 -138.76424 
L 268.602353 -138.720929 
L 263.317864 -139.719832 
L 258.033377 -137.941616 
L 252.752694 -140.343018 
L 247.468207 -139.700314 
L 242.18372 -141.723723 
L 236.899233 -138.899006 
L 231.614746 -133.116042 
L 226.330259 -133.547673 
L 221.045771 -133.259153 
L 215.761284 -133.083606 
L 210.476797 -136.855557 
L 205.196114 -142.246796 
L 199.911627 -140.387861 
L 194.627145 -135.85085 
L 189.342646 -137.0205 
L 184.058165 -137.567944 
L 178.773683 -139.344121 
L 173.489184 -141.631777 
L 168.204702 -142.119278 
L 162.92022 -142.174095 
L 157.639543 -143.080616 
L 152.355044 -141.25836 
L 147.070562 -144.400832 
L 141.78608 -147.521797 
L 136.501581 -144.840556 
L 131.217099 -144.93596 
L 125.932617 -141.782826 
L 120.648118 -136.87844 
L 115.363636 -140.260719 
z
" id="ma3bc29e44d" style="stroke:#0000ff;stroke-opacity:0.35;"/>
    </defs>
    <g clip-path="url(#p19f77403b3)">
     <use style="fill:#0000ff;fill-opacity:0.35;stroke:#0000ff;stroke-opacity:0.35;" x="0" xlink:href="#ma3bc29e44d" y="720"/>
    </g>
   </g>
   <g id="matplotlib.axis_1">
    <g id="xtick_1">
     <g id="line2d_1">
      <defs>
       <path d="M 0 0 
L 0 3.5 
" id="m9640065bc3" style="stroke:#000000;stroke-width:0.8;"/>
      </defs>
      <g>
       <use style="stroke:#000000;stroke-width:0.8;" x="115.365158" xlink:href="#m9640065bc3" y="630"/>
      </g>
     </g>
     <g id="text_1">
      <!-- −15 -->
      <g transform="translate(104.812814 644.598438)scale(0.1 -0.1)">
       <defs>
        <path d="M 10.59375 35.5 
L 73.1875 35.5 
L 73.1875 27.203125 
L 10.59375 27.203125 
z
" id="DejaVuSans-8722"/>
        <path d="M 12.40625 8.296875 
L 28.515625 8.296875 
L 28.515625 63.921875 
L 10.984375 60.40625 
L 10.984375 69.390625 
L 28.421875 72.90625 
L 38.28125 72.90625 
L 38.28125 8.296875 
L 54.390625 8.296875 
L 54.390625 0 
L 12.40625 0 
z
" id="DejaVuSans-49"/>
        <path d="M 10.796875 72.90625 
L 49.515625 72.90625 
L 49.515625 64.59375 
L 19.828125 64.59375 
L 19.828125 46.734375 
Q 21.96875 47.46875 24.109375 47.828125 
Q 26.265625 48.1875 28.421875 48.1875 
Q 40.625 48.1875 47.75 41.5 
Q 54.890625 34.8125 54.890625 23.390625 
Q 54.890625 11.625 47.5625 5.09375 
Q 40.234375 -1.421875 26.90625 -1.421875 
Q 22.3125 -1.421875 17.546875 -0.640625 
Q 12.796875 0.140625 7.71875 1.703125 
L 7.71875 11.625 
Q 12.109375 9.234375 16.796875 8.0625 
Q 21.484375 6.890625 26.703125 6.890625 
Q 35.15625 6.890625 40.078125 11.328125 
Q 45.015625 15.765625 45.015625 23.390625 
Q 45.015625 31 40.078125 35.4375 
Q 35.15625 39.890625 26.703125 39.890625 
Q 22.75 39.890625 18.8125 39.015625 
Q 14.890625 38.140625 10.796875 36.28125 
z
" id="DejaVuSans-53"/>
       </defs>
       <use xlink:href="#DejaVuSans-8722"/>
       <use x="83.789062" xlink:href="#DejaVuSans-49"/>
       <use x="147.412109" xlink:href="#DejaVuSans-53"/>
      </g>
     </g>
    </g>
    <g id="xtick_2">
     <g id="line2d_2">
      <g>
       <use style="stroke:#000000;stroke-width:0.8;" x="199.910105" xlink:href="#m9640065bc3" y="630"/>
      </g>
     </g>
     <g id="text_2">
      <!-- −10 -->
      <g transform="translate(189.357762 644.598438)scale(0.1 -0.1)">
       <defs>
        <path d="M 31.78125 66.40625 
Q 24.171875 66.40625 20.328125 58.90625 
Q 16.5 51.421875 16.5 36.375 
Q 16.5 21.390625 20.328125 13.890625 
Q 24.171875 6.390625 31.78125 6.390625 
Q 39.453125 6.390625 43.28125 13.890625 
Q 47.125 21.390625 47.125 36.375 
Q 47.125 51.421875 43.28125 58.90625 
Q 39.453125 66.40625 31.78125 66.40625 
z
M 31.78125 74.21875 
Q 44.046875 74.21875 50.515625 64.515625 
Q 56.984375 54.828125 56.984375 36.375 
Q 56.984375 17.96875 50.515625 8.265625 
Q 44.046875 -1.421875 31.78125 -1.421875 
Q 19.53125 -1.421875 13.0625 8.265625 
Q 6.59375 17.96875 6.59375 36.375 
Q 6.59375 54.828125 13.0625 64.515625 
Q 19.53125 74.21875 31.78125 74.21875 
z
" id="DejaVuSans-48"/>
       </defs>
       <use xlink:href="#DejaVuSans-8722"/>
       <use x="83.789062" xlink:href="#DejaVuSans-49"/>
       <use x="147.412109" xlink:href="#DejaVuSans-48"/>
      </g>
     </g>
    </g>
    <g id="xtick_3">
     <g id="line2d_3">
      <g>
       <use style="stroke:#000000;stroke-width:0.8;" x="284.455053" xlink:href="#m9640065bc3" y="630"/>
      </g>
     </g>
     <g id="text_3">
      <!-- −5 -->
      <g transform="translate(277.083959 644.598438)scale(0.1 -0.1)">
       <use xlink:href="#DejaVuSans-8722"/>
       <use x="83.789062" xlink:href="#DejaVuSans-53"/>
      </g>
     </g>
    </g>
    <g id="xtick_4">
     <g id="line2d_4">
      <g>
       <use style="stroke:#000000;stroke-width:0.8;" x="369" xlink:href="#m9640065bc3" y="630"/>
      </g>
     </g>
     <g id="text_4">
      <!-- 0 -->
      <g transform="translate(365.81875 644.598438)scale(0.1 -0.1)">
       <use xlink:href="#DejaVuSans-48"/>
      </g>
     </g>
    </g>
    <g id="xtick_5">
     <g id="line2d_5">
      <g>
       <use style="stroke:#000000;stroke-width:0.8;" x="453.544947" xlink:href="#m9640065bc3" y="630"/>
      </g>
     </g>
     <g id="text_5">
      <!-- 5 -->
      <g transform="translate(450.363697 644.598438)scale(0.1 -0.1)">
       <use xlink:href="#DejaVuSans-53"/>
      </g>
     </g>
    </g>
    <g id="xtick_6">
     <g id="line2d_6">
      <g>
       <use style="stroke:#000000;stroke-width:0.8;" x="538.089895" xlink:href="#m9640065bc3" y="630"/>
      </g>
     </g>
     <g id="text_6">
      <!-- 10 -->
      <g transform="translate(531.727395 644.598438)scale(0.1 -0.1)">
       <use xlink:href="#DejaVuSans-49"/>
       <use x="63.623047" xlink:href="#DejaVuSans-48"/>
      </g>
     </g>
    </g>
    <g id="xtick_7">
     <g id="line2d_7">
      <g>
       <use style="stroke:#000000;stroke-width:0.8;" x="622.634842" xlink:href="#m9640065bc3" y="630"/>
      </g>
     </g>
     <g id="text_7">
      <!-- 15 -->
      <g transform="translate(616.272342 644.598438)scale(0.1 -0.1)">
       <use xlink:href="#DejaVuSans-49"/>
       <use x="63.623047" xlink:href="#DejaVuSans-53"/>
      </g>
     </g>
    </g>
    <g id="text_8">
     <!-- Distance ($\mu$m) -->
     <g transform="translate(297.8 665.878125)scale(0.2 -0.2)">
      <defs>
       <path d="M 24.703125 5.171875 
L 33.796875 5.171875 
Q 48 5.171875 55.59375 13.28125 
Q 63.1875 21.390625 63.1875 36.53125 
Q 63.1875 51.65625 55.609375 59.65625 
Q 48.046875 67.671875 33.796875 67.671875 
L 24.703125 67.671875 
z
M 5.515625 0 
L 5.515625 5.171875 
L 14.796875 5.171875 
L 14.796875 67.671875 
L 5.515625 67.671875 
L 5.515625 72.90625 
L 34.515625 72.90625 
Q 53.375 72.90625 63.890625 63.28125 
Q 74.421875 53.65625 74.421875 36.53125 
Q 74.421875 19.34375 63.875 9.671875 
Q 53.328125 0 34.515625 0 
z
" id="DejaVuSerif-68"/>
       <path d="M 9.71875 68.015625 
Q 9.71875 70.265625 11.34375 71.921875 
Q 12.984375 73.578125 15.28125 73.578125 
Q 17.53125 73.578125 19.15625 71.921875 
Q 20.796875 70.265625 20.796875 68.015625 
Q 20.796875 65.71875 19.1875 64.109375 
Q 17.578125 62.5 15.28125 62.5 
Q 12.984375 62.5 11.34375 64.109375 
Q 9.71875 65.71875 9.71875 68.015625 
z
M 21.1875 5.171875 
L 29.6875 5.171875 
L 29.6875 0 
L 3.609375 0 
L 3.609375 5.171875 
L 12.203125 5.171875 
L 12.203125 46.6875 
L 3.609375 46.6875 
L 3.609375 51.90625 
L 21.1875 51.90625 
z
" id="DejaVuSerif-105"/>
       <path d="M 5.609375 2.875 
L 5.609375 14.984375 
L 10.796875 14.984375 
Q 10.984375 9.1875 14.421875 6.296875 
Q 17.875 3.421875 24.609375 3.421875 
Q 30.671875 3.421875 33.84375 5.6875 
Q 37.015625 7.953125 37.015625 12.3125 
Q 37.015625 15.71875 34.6875 17.8125 
Q 32.375 19.921875 24.90625 22.3125 
L 18.40625 24.515625 
Q 11.71875 26.65625 8.71875 29.875 
Q 5.71875 33.109375 5.71875 38.09375 
Q 5.71875 45.21875 10.9375 49.265625 
Q 16.15625 53.328125 25.390625 53.328125 
Q 29.5 53.328125 34.03125 52.25 
Q 38.578125 51.171875 43.40625 49.125 
L 43.40625 37.796875 
L 38.234375 37.796875 
Q 38.03125 42.828125 34.703125 45.65625 
Q 31.390625 48.484375 25.6875 48.484375 
Q 20.015625 48.484375 17.109375 46.484375 
Q 14.203125 44.484375 14.203125 40.484375 
Q 14.203125 37.203125 16.40625 35.21875 
Q 18.609375 33.25 25.203125 31.203125 
L 32.328125 29 
Q 39.703125 26.703125 42.9375 23.265625 
Q 46.1875 19.828125 46.1875 14.40625 
Q 46.1875 7.03125 40.546875 2.796875 
Q 34.90625 -1.421875 25 -1.421875 
Q 19.96875 -1.421875 15.1875 -0.34375 
Q 10.40625 0.734375 5.609375 2.875 
z
" id="DejaVuSerif-115"/>
       <path d="M 10.796875 46.6875 
L 2.875 46.6875 
L 2.875 51.90625 
L 10.796875 51.90625 
L 10.796875 68.015625 
L 19.828125 68.015625 
L 19.828125 51.90625 
L 36.71875 51.90625 
L 36.71875 46.6875 
L 19.828125 46.6875 
L 19.828125 13.71875 
Q 19.828125 7.125 21.09375 5.265625 
Q 22.359375 3.421875 25.78125 3.421875 
Q 29.296875 3.421875 30.90625 5.484375 
Q 32.515625 7.5625 32.625 12.203125 
L 39.40625 12.203125 
Q 39.015625 5.125 35.546875 1.84375 
Q 32.078125 -1.421875 25 -1.421875 
Q 17.234375 -1.421875 14.015625 2.015625 
Q 10.796875 5.46875 10.796875 13.71875 
z
" id="DejaVuSerif-116"/>
       <path d="M 39.796875 16.3125 
L 39.796875 27.296875 
L 28.21875 27.296875 
Q 21.53125 27.296875 18.25 24.40625 
Q 14.984375 21.53125 14.984375 15.578125 
Q 14.984375 10.15625 18.296875 6.984375 
Q 21.625 3.8125 27.296875 3.8125 
Q 32.90625 3.8125 36.34375 7.28125 
Q 39.796875 10.75 39.796875 16.3125 
z
M 48.78125 32.421875 
L 48.78125 5.171875 
L 56.78125 5.171875 
L 56.78125 0 
L 39.796875 0 
L 39.796875 5.609375 
Q 36.8125 2 32.90625 0.28125 
Q 29 -1.421875 23.78125 -1.421875 
Q 15.140625 -1.421875 10.0625 3.171875 
Q 4.984375 7.765625 4.984375 15.578125 
Q 4.984375 23.640625 10.796875 28.078125 
Q 16.609375 32.515625 27.203125 32.515625 
L 39.796875 32.515625 
L 39.796875 36.078125 
Q 39.796875 42 36.203125 45.234375 
Q 32.625 48.484375 26.125 48.484375 
Q 20.75 48.484375 17.578125 46.046875 
Q 14.40625 43.609375 13.625 38.8125 
L 8.984375 38.8125 
L 8.984375 49.3125 
Q 13.671875 51.3125 18.09375 52.3125 
Q 22.515625 53.328125 26.703125 53.328125 
Q 37.5 53.328125 43.140625 47.96875 
Q 48.78125 42.625 48.78125 32.421875 
z
" id="DejaVuSerif-97"/>
       <path d="M 4.109375 0 
L 4.109375 5.171875 
L 12.203125 5.171875 
L 12.203125 46.6875 
L 3.609375 46.6875 
L 3.609375 51.90625 
L 21.1875 51.90625 
L 21.1875 42.671875 
Q 23.6875 47.953125 27.65625 50.640625 
Q 31.640625 53.328125 36.921875 53.328125 
Q 45.515625 53.328125 49.5625 48.390625 
Q 53.609375 43.453125 53.609375 33.015625 
L 53.609375 5.171875 
L 61.625 5.171875 
L 61.625 0 
L 36.8125 0 
L 36.8125 5.171875 
L 44.578125 5.171875 
L 44.578125 30.171875 
Q 44.578125 39.703125 42.234375 43.234375 
Q 39.890625 46.78125 33.984375 46.78125 
Q 27.734375 46.78125 24.453125 42.203125 
Q 21.1875 37.640625 21.1875 28.90625 
L 21.1875 5.171875 
L 29 5.171875 
L 29 0 
z
" id="DejaVuSerif-110"/>
       <path d="M 51.421875 15.578125 
Q 49.515625 7.28125 44.09375 2.921875 
Q 38.671875 -1.421875 30.078125 -1.421875 
Q 18.75 -1.421875 11.859375 6.078125 
Q 4.984375 13.578125 4.984375 25.984375 
Q 4.984375 38.421875 11.859375 45.875 
Q 18.75 53.328125 30.078125 53.328125 
Q 35.015625 53.328125 39.890625 52.171875 
Q 44.78125 51.03125 49.703125 48.6875 
L 49.703125 35.40625 
L 44.484375 35.40625 
Q 43.453125 42.234375 40.015625 45.359375 
Q 36.578125 48.484375 30.171875 48.484375 
Q 22.90625 48.484375 19.1875 42.84375 
Q 15.484375 37.203125 15.484375 25.984375 
Q 15.484375 14.75 19.171875 9.078125 
Q 22.859375 3.421875 30.171875 3.421875 
Q 35.984375 3.421875 39.453125 6.4375 
Q 42.921875 9.46875 44.1875 15.578125 
z
" id="DejaVuSerif-99"/>
       <path d="M 54.203125 25 
L 15.484375 25 
L 15.484375 24.609375 
Q 15.484375 14.109375 19.4375 8.765625 
Q 23.390625 3.421875 31.109375 3.421875 
Q 37.015625 3.421875 40.796875 6.515625 
Q 44.578125 9.625 46.09375 15.71875 
L 53.328125 15.71875 
Q 51.171875 7.171875 45.375 2.875 
Q 39.59375 -1.421875 30.171875 -1.421875 
Q 18.796875 -1.421875 11.890625 6.078125 
Q 4.984375 13.578125 4.984375 25.984375 
Q 4.984375 38.28125 11.765625 45.796875 
Q 18.5625 53.328125 29.59375 53.328125 
Q 41.359375 53.328125 47.65625 46.0625 
Q 53.953125 38.8125 54.203125 25 
z
M 43.609375 30.171875 
Q 43.3125 39.265625 39.765625 43.875 
Q 36.234375 48.484375 29.59375 48.484375 
Q 23.390625 48.484375 19.828125 43.84375 
Q 16.265625 39.203125 15.484375 30.171875 
z
" id="DejaVuSerif-101"/>
       <path id="DejaVuSerif-32"/>
       <path d="M 31.890625 -15.578125 
Q 20.015625 -10.25 13.953125 1.296875 
Q 7.90625 12.84375 7.90625 30.171875 
Q 7.90625 47.5625 13.953125 59.109375 
Q 20.015625 70.65625 31.890625 75.984375 
L 31.890625 71.1875 
Q 24.359375 66.015625 21.09375 56.609375 
Q 17.828125 47.21875 17.828125 30.171875 
Q 17.828125 13.1875 21.09375 3.78125 
Q 24.359375 -5.609375 31.890625 -10.796875 
z
" id="DejaVuSerif-40"/>
       <path d="M -1.3125 -20.796875 
L 13.375 54.6875 
L 22.40625 54.6875 
L 15.765625 20.65625 
Q 15.578125 19.625 15.421875 18.359375 
Q 15.28125 17.09375 15.28125 15.828125 
Q 15.28125 11.28125 18.140625 8.828125 
Q 21 6.390625 26.3125 6.390625 
Q 33.546875 6.390625 37.984375 10.484375 
Q 42.4375 14.59375 44 22.796875 
L 50.203125 54.6875 
L 59.1875 54.6875 
L 51.03125 12.640625 
Q 50.828125 11.71875 50.75 11.03125 
Q 50.6875 10.359375 50.6875 9.8125 
Q 50.6875 8.296875 51.296875 7.59375 
Q 51.90625 6.890625 53.21875 6.890625 
Q 53.71875 6.890625 54.5625 7.125 
Q 55.421875 7.375 56.984375 8.015625 
L 55.609375 0.78125 
Q 53.46875 -0.296875 51.515625 -0.859375 
Q 49.5625 -1.421875 47.703125 -1.421875 
Q 44.484375 -1.421875 42.65625 0.625 
Q 40.828125 2.6875 40.828125 6.296875 
Q 38.09375 2.390625 34.296875 0.484375 
Q 30.515625 -1.421875 25.390625 -1.421875 
Q 20.84375 -1.421875 17.453125 0.671875 
Q 14.0625 2.78125 12.984375 6.203125 
L 7.71875 -20.796875 
z
" id="DejaVuSans-Oblique-956"/>
       <path d="M 51.8125 41.796875 
Q 54.390625 47.515625 58.421875 50.421875 
Q 62.453125 53.328125 67.828125 53.328125 
Q 75.984375 53.328125 79.984375 48.265625 
Q 83.984375 43.21875 83.984375 33.015625 
L 83.984375 5.171875 
L 92.09375 5.171875 
L 92.09375 0 
L 67.1875 0 
L 67.1875 5.171875 
L 75 5.171875 
L 75 31.984375 
Q 75 39.9375 72.65625 43.3125 
Q 70.3125 46.6875 64.890625 46.6875 
Q 58.890625 46.6875 55.734375 42.140625 
Q 52.59375 37.59375 52.59375 28.90625 
L 52.59375 5.171875 
L 60.40625 5.171875 
L 60.40625 0 
L 35.796875 0 
L 35.796875 5.171875 
L 43.609375 5.171875 
L 43.609375 32.328125 
Q 43.609375 40.09375 41.265625 43.390625 
Q 38.921875 46.6875 33.5 46.6875 
Q 27.484375 46.6875 24.328125 42.140625 
Q 21.1875 37.59375 21.1875 28.90625 
L 21.1875 5.171875 
L 29 5.171875 
L 29 0 
L 4.109375 0 
L 4.109375 5.171875 
L 12.203125 5.171875 
L 12.203125 46.78125 
L 3.609375 46.78125 
L 3.609375 51.90625 
L 21.1875 51.90625 
L 21.1875 42.671875 
Q 23.6875 47.859375 27.53125 50.59375 
Q 31.390625 53.328125 36.28125 53.328125 
Q 42.328125 53.328125 46.375 50.3125 
Q 50.4375 47.3125 51.8125 41.796875 
z
" id="DejaVuSerif-109"/>
       <path d="M 7.078125 -15.578125 
L 7.078125 -10.796875 
Q 14.59375 -5.609375 17.890625 3.78125 
Q 21.1875 13.1875 21.1875 30.171875 
Q 21.1875 47.21875 17.890625 56.609375 
Q 14.59375 66.015625 7.078125 71.1875 
L 7.078125 75.984375 
Q 19 70.65625 25.046875 59.109375 
Q 31.109375 47.5625 31.109375 30.171875 
Q 31.109375 12.84375 25.046875 1.296875 
Q 19 -10.25 7.078125 -15.578125 
z
" id="DejaVuSerif-41"/>
      </defs>
      <use transform="translate(0 0.015625)" xlink:href="#DejaVuSerif-68"/>
      <use transform="translate(80.175781 0.015625)" xlink:href="#DejaVuSerif-105"/>
      <use transform="translate(112.158203 0.015625)" xlink:href="#DejaVuSerif-115"/>
      <use transform="translate(163.476562 0.015625)" xlink:href="#DejaVuSerif-116"/>
      <use transform="translate(203.662109 0.015625)" xlink:href="#DejaVuSerif-97"/>
      <use transform="translate(263.28125 0.015625)" xlink:href="#DejaVuSerif-110"/>
      <use transform="translate(327.685547 0.015625)" xlink:href="#DejaVuSerif-99"/>
      <use transform="translate(383.691406 0.015625)" xlink:href="#DejaVuSerif-101"/>
      <use transform="translate(442.871094 0.015625)" xlink:href="#DejaVuSerif-32"/>
      <use transform="translate(474.658203 0.015625)" xlink:href="#DejaVuSerif-40"/>
      <use transform="translate(513.671875 0.015625)" xlink:href="#DejaVuSans-Oblique-956"/>
      <use transform="translate(577.294922 0.015625)" xlink:href="#DejaVuSerif-109"/>
      <use transform="translate(672.119141 0.015625)" xlink:href="#DejaVuSerif-41"/>
     </g>
    </g>
   </g>
   <g id="matplotlib.axis_2">
    <g id="ytick_1">
     <g id="line2d_8">
      <defs>
       <path d="M 0 0 
L -3.5 0 
" id="m6f14f1a70a" style="stroke:#000000;stroke-width:0.8;"/>
      </defs>
      <g>
       <use style="stroke:#000000;stroke-width:0.8;" x="90" xlink:href="#m6f14f1a70a" y="529.610412"/>
      </g>
     </g>
     <g id="text_9">
      <!-- 5 -->
      <g transform="translate(76.6375 533.40963)scale(0.1 -0.1)">
       <use xlink:href="#DejaVuSans-53"/>
      </g>
     </g>
    </g>
    <g id="ytick_2">
     <g id="line2d_9">
      <g>
       <use style="stroke:#000000;stroke-width:0.8;" x="90" xlink:href="#m6f14f1a70a" y="421.323743"/>
      </g>
     </g>
     <g id="text_10">
      <!-- 10 -->
      <g transform="translate(70.275 425.122962)scale(0.1 -0.1)">
       <use xlink:href="#DejaVuSans-49"/>
       <use x="63.623047" xlink:href="#DejaVuSans-48"/>
      </g>
     </g>
    </g>
    <g id="ytick_3">
     <g id="line2d_10">
      <g>
       <use style="stroke:#000000;stroke-width:0.8;" x="90" xlink:href="#m6f14f1a70a" y="313.037075"/>
      </g>
     </g>
     <g id="text_11">
      <!-- 15 -->
      <g transform="translate(70.275 316.836293)scale(0.1 -0.1)">
       <use xlink:href="#DejaVuSans-49"/>
       <use x="63.623047" xlink:href="#DejaVuSans-53"/>
      </g>
     </g>
    </g>
    <g id="ytick_4">
     <g id="line2d_11">
      <g>
       <use style="stroke:#000000;stroke-width:0.8;" x="90" xlink:href="#m6f14f1a70a" y="204.750406"/>
      </g>
     </g>
     <g id="text_12">
      <!-- 20 -->
      <g transform="translate(70.275 208.549625)scale(0.1 -0.1)">
       <defs>
        <path d="M 19.1875 8.296875 
L 53.609375 8.296875 
L 53.609375 0 
L 7.328125 0 
L 7.328125 8.296875 
Q 12.9375 14.109375 22.625 23.890625 
Q 32.328125 33.6875 34.8125 36.53125 
Q 39.546875 41.84375 41.421875 45.53125 
Q 43.3125 49.21875 43.3125 52.78125 
Q 43.3125 58.59375 39.234375 62.25 
Q 35.15625 65.921875 28.609375 65.921875 
Q 23.96875 65.921875 18.8125 64.3125 
Q 13.671875 62.703125 7.8125 59.421875 
L 7.8125 69.390625 
Q 13.765625 71.78125 18.9375 73 
Q 24.125 74.21875 28.421875 74.21875 
Q 39.75 74.21875 46.484375 68.546875 
Q 53.21875 62.890625 53.21875 53.421875 
Q 53.21875 48.921875 51.53125 44.890625 
Q 49.859375 40.875 45.40625 35.40625 
Q 44.1875 33.984375 37.640625 27.21875 
Q 31.109375 20.453125 19.1875 8.296875 
z
" id="DejaVuSans-50"/>
       </defs>
       <use xlink:href="#DejaVuSans-50"/>
       <use x="63.623047" xlink:href="#DejaVuSans-48"/>
      </g>
     </g>
    </g>
    <g id="ytick_5">
     <g id="line2d_12">
      <g>
       <use style="stroke:#000000;stroke-width:0.8;" x="90" xlink:href="#m6f14f1a70a" y="96.463738"/>
      </g>
     </g>
     <g id="text_13">
      <!-- 25 -->
      <g transform="translate(70.275 100.262957)scale(0.1 -0.1)">
       <use xlink:href="#DejaVuSans-50"/>
       <use x="63.623047" xlink:href="#DejaVuSans-53"/>
      </g>
     </g>
    </g>
    <g id="text_14">
     <!-- Intensity (A.U) -->
     <g transform="translate(61.83125 432.776563)rotate(-90)scale(0.2 -0.2)">
      <defs>
       <path d="M 24.703125 5.171875 
L 33.984375 5.171875 
L 33.984375 0 
L 5.515625 0 
L 5.515625 5.171875 
L 14.796875 5.171875 
L 14.796875 67.671875 
L 5.515625 67.671875 
L 5.515625 72.90625 
L 33.984375 72.90625 
L 33.984375 67.671875 
L 24.703125 67.671875 
z
" id="DejaVuSerif-73"/>
       <path d="M 21.578125 -9.515625 
L 25 -0.875 
L 5.609375 46.6875 
L -0.296875 46.6875 
L -0.296875 51.90625 
L 23.578125 51.90625 
L 23.578125 46.6875 
L 15.28125 46.6875 
L 29.890625 10.984375 
L 44.484375 46.6875 
L 36.71875 46.6875 
L 36.71875 51.90625 
L 56.203125 51.90625 
L 56.203125 46.6875 
L 50.390625 46.6875 
L 26.609375 -11.71875 
Q 24.171875 -17.78125 21.1875 -20 
Q 18.21875 -22.21875 12.796875 -22.21875 
Q 10.5 -22.21875 8.078125 -21.828125 
Q 5.671875 -21.4375 3.21875 -20.703125 
L 3.21875 -10.796875 
L 7.8125 -10.796875 
Q 8.109375 -14.109375 9.5 -15.546875 
Q 10.890625 -17 13.8125 -17 
Q 16.5 -17 18.140625 -15.5 
Q 19.78125 -14.015625 21.578125 -9.515625 
z
" id="DejaVuSerif-121"/>
       <path d="M 20.015625 26.421875 
L 46.78125 26.421875 
L 33.40625 61.078125 
z
M -0.59375 0 
L -0.59375 5.171875 
L 5.8125 5.171875 
L 31.78125 72.90625 
L 39.984375 72.90625 
L 66.015625 5.171875 
L 73.1875 5.171875 
L 73.1875 0 
L 46.6875 0 
L 46.6875 5.171875 
L 54.78125 5.171875 
L 48.6875 21.1875 
L 18.015625 21.1875 
L 11.921875 5.171875 
L 19.921875 5.171875 
L 19.921875 0 
z
" id="DejaVuSerif-65"/>
       <path d="M 9.421875 5.078125 
Q 9.421875 7.8125 11.28125 9.71875 
Q 13.140625 11.625 15.921875 11.625 
Q 18.609375 11.625 20.5 9.71875 
Q 22.40625 7.8125 22.40625 5.078125 
Q 22.40625 2.390625 20.5 0.484375 
Q 18.609375 -1.421875 15.921875 -1.421875 
Q 13.140625 -1.421875 11.28125 0.453125 
Q 9.421875 2.34375 9.421875 5.078125 
z
" id="DejaVuSerif-46"/>
       <path d="M 14.015625 67.671875 
L 4.6875 67.671875 
L 4.6875 72.90625 
L 33.203125 72.90625 
L 33.203125 67.671875 
L 23.875 67.671875 
L 23.875 29.984375 
Q 23.875 16.015625 28.4375 10.5 
Q 33.015625 4.984375 44.1875 4.984375 
Q 55.375 4.984375 59.9375 10.5 
Q 64.5 16.015625 64.5 29.984375 
L 64.5 67.671875 
L 55.171875 67.671875 
L 55.171875 72.90625 
L 79.78125 72.90625 
L 79.78125 67.671875 
L 70.515625 67.671875 
L 70.515625 29 
Q 70.515625 12.359375 64.109375 5.46875 
Q 57.71875 -1.421875 42.390625 -1.421875 
Q 27.046875 -1.421875 20.53125 5.515625 
Q 14.015625 12.453125 14.015625 29 
z
" id="DejaVuSerif-85"/>
      </defs>
      <use xlink:href="#DejaVuSerif-73"/>
      <use x="39.501953" xlink:href="#DejaVuSerif-110"/>
      <use x="103.90625" xlink:href="#DejaVuSerif-116"/>
      <use x="144.091797" xlink:href="#DejaVuSerif-101"/>
      <use x="203.271484" xlink:href="#DejaVuSerif-110"/>
      <use x="267.675781" xlink:href="#DejaVuSerif-115"/>
      <use x="318.994141" xlink:href="#DejaVuSerif-105"/>
      <use x="350.976562" xlink:href="#DejaVuSerif-116"/>
      <use x="391.162109" xlink:href="#DejaVuSerif-121"/>
      <use x="447.65625" xlink:href="#DejaVuSerif-32"/>
      <use x="479.443359" xlink:href="#DejaVuSerif-40"/>
      <use x="518.457031" xlink:href="#DejaVuSerif-65"/>
      <use x="590.673828" xlink:href="#DejaVuSerif-46"/>
      <use x="622.460938" xlink:href="#DejaVuSerif-85"/>
      <use x="706.738281" xlink:href="#DejaVuSerif-41"/>
     </g>
    </g>
   </g>
   <g id="line2d_13">
    <path clip-path="url(#p19f77403b3)" d="M 115.363636 559.393312 
L 120.648118 558.361509 
L 125.932617 559.902325 
L 131.217099 563.21759 
L 136.501581 565.896183 
L 141.78608 564.390941 
L 147.070562 560.720835 
L 152.355044 560.464547 
L 157.639543 557.548361 
L 162.92022 562.568384 
L 168.204702 568.73659 
L 173.489184 568.184582 
L 178.773683 566.786034 
L 184.058165 565.286321 
L 189.342646 563.476299 
L 194.627145 558.71171 
L 199.911627 561.711579 
L 205.196114 562.080891 
L 210.476797 558.480018 
L 215.761284 563.286758 
L 221.045771 564.455828 
L 226.330259 565.240893 
L 231.614746 566.358564 
L 236.899233 568.241116 
L 242.18372 566.273213 
L 247.468207 556.128303 
L 252.752694 553.902012 
L 258.033377 555.484938 
L 263.317864 556.126509 
L 268.602353 560.767398 
L 273.88684 561.555335 
L 279.171327 557.940322 
L 284.455814 554.70269 
L 289.740301 545.089713 
L 295.024788 523.005629 
L 300.309275 489.985907 
L 305.589957 431.699765 
L 310.874446 369.367143 
L 316.158933 294.800633 
L 321.44342 230.189275 
L 326.727907 183.003343 
L 332.012394 143.321978 
L 337.296881 153.222558 
L 342.581368 173.3978 
L 347.865857 215.877144 
L 353.146539 254.272293 
L 358.431026 272.984096 
L 363.715513 266.569662 
L 369 258.558542 
L 374.284487 240.341928 
L 379.568975 200.25048 
L 384.853462 158.428397 
L 390.137949 136.236346 
L 395.422436 139.276918 
L 400.703119 172.365605 
L 405.987606 227.175044 
L 411.272093 290.439931 
L 416.55658 349.880627 
L 421.841068 391.871143 
L 427.125555 429.027196 
L 432.410042 469.702626 
L 437.694529 502.956239 
L 442.979017 521.093077 
L 448.259699 538.211517 
L 453.544186 549.754029 
L 458.828674 553.415744 
L 464.113161 560.550054 
L 469.397648 563.195552 
L 474.682135 563.921025 
L 479.966622 561.821546 
L 485.25111 565.964044 
L 490.535597 566.84049 
L 495.81628 571.089574 
L 501.100767 567.734761 
L 506.385254 570.036988 
L 511.669741 566.800403 
L 516.954228 563.360542 
L 522.238716 561.190551 
L 527.523203 557.489232 
L 532.80769 556.478806 
L 538.092177 555.292966 
L 543.37286 551.837213 
L 548.657347 551.737701 
L 553.941834 553.052393 
L 559.226322 552.567019 
L 564.510809 551.436528 
L 569.795296 548.727644 
L 575.079783 548.968649 
L 580.36427 547.526513 
L 585.648757 551.312865 
L 590.92944 556.197394 
L 596.213927 559.289834 
L 601.498414 560.101682 
L 606.782903 555.17563 
L 612.06739 554.3612 
L 617.351877 555.856759 
L 622.636364 558.182287 
" style="fill:none;stroke:#ff0000;stroke-linecap:square;stroke-width:1.5;"/>
   </g>
   <g id="line2d_14">
    <path clip-path="url(#p19f77403b3)" d="M 115.363636 586.63221 
L 120.648118 589.09725 
L 125.932617 584.40185 
L 131.217099 581.627573 
L 136.501581 581.850696 
L 141.78608 579.970358 
L 147.070562 582.352917 
L 152.355044 585.016467 
L 157.639543 583.416643 
L 162.92022 584.084437 
L 168.204702 584.370862 
L 173.489184 584.984739 
L 178.773683 587.088869 
L 184.058165 588.928573 
L 189.342646 589.155189 
L 194.627145 589.912157 
L 199.911627 585.920209 
L 205.196114 584.658176 
L 210.476797 589.373327 
L 215.761284 592.592415 
L 221.045771 592.453449 
L 226.330259 592.317569 
L 231.614746 592.772142 
L 236.899233 587.498046 
L 242.18372 584.818996 
L 247.468207 586.822879 
L 252.752694 586.196122 
L 258.033377 588.154743 
L 263.317864 586.476602 
L 268.602353 587.410962 
L 273.88684 587.678745 
L 279.171327 585.709622 
L 284.455814 578.77377 
L 289.740301 564.758874 
L 295.024788 539.621165 
L 300.309275 502.86928 
L 305.589957 465.076815 
L 310.874446 434.561209 
L 316.158933 411.458523 
L 321.44342 372.469764 
L 326.727907 339.639792 
L 332.012394 303.865808 
L 337.296881 280.533981 
L 342.581368 280.987173 
L 347.865857 290.7954 
L 353.146539 313.555 
L 358.431026 339.601878 
L 363.715513 357.441716 
L 369 355.912357 
L 374.284487 338.620267 
L 379.568975 320.513848 
L 384.853462 297.045927 
L 390.137949 284.313166 
L 395.422436 269.685149 
L 400.703119 283.425179 
L 405.987606 332.873612 
L 411.272093 378.266585 
L 416.55658 415.441926 
L 421.841068 443.8051 
L 427.125555 486.838042 
L 432.410042 528.707403 
L 437.694529 556.717358 
L 442.979017 578.254744 
L 448.259699 591.471639 
L 453.544186 591.890063 
L 458.828674 595.916184 
L 464.113161 595.377818 
L 469.397648 596.810569 
L 474.682135 598.335029 
L 479.966622 599.599462 
L 485.25111 599.277482 
L 490.535597 597.206911 
L 495.81628 591.248026 
L 501.100767 585.057325 
L 506.385254 588.279864 
L 511.669741 584.89377 
L 516.954228 585.228464 
L 522.238716 587.633451 
L 527.523203 588.089273 
L 532.80769 586.589304 
L 538.092177 588.996435 
L 543.37286 590.810204 
L 548.657347 590.621503 
L 553.941834 589.119783 
L 559.226322 590.956851 
L 564.510809 592.871728 
L 569.795296 591.456249 
L 575.079783 590.777616 
L 580.36427 588.717113 
L 585.648757 589.729596 
L 590.92944 586.995853 
L 596.213927 584.652327 
L 601.498414 586.430895 
L 606.782903 588.646013 
L 612.06739 592.812182 
L 617.351877 593.962802 
L 622.636364 591.925641 
" style="fill:none;stroke:#0000ff;stroke-linecap:square;stroke-width:1.5;"/>
   </g>
   <g id="patch_3">
    <path d="M 90 630 
L 90 86.4 
" style="fill:none;stroke:#000000;stroke-linecap:square;stroke-linejoin:miter;stroke-width:0.8;"/>
   </g>
   <g id="patch_4">
    <path d="M 648 630 
L 648 86.4 
" style="fill:none;stroke:#000000;stroke-linecap:square;stroke-linejoin:miter;stroke-width:0.8;"/>
   </g>
   <g id="patch_5">
    <path d="M 90 630 
L 648 630 
" style="fill:none;stroke:#000000;stroke-linecap:square;stroke-linejoin:miter;stroke-width:0.8;"/>
   </g>
   <g id="patch_6">
    <path d="M 90 86.4 
L 648 86.4 
" style="fill:none;stroke:#000000;stroke-linecap:square;stroke-linejoin:miter;stroke-width:0.8;"/>
   </g>
   <g id="text_15">
    <!-- Average intensity of AQP4 staining -->
    <g transform="translate(147.492188 80.4)scale(0.25 -0.25)">
     <defs>
      <path d="M 24.703125 0 
L 5.609375 46.6875 
L -0.296875 46.6875 
L -0.296875 51.90625 
L 23.578125 51.90625 
L 23.578125 46.6875 
L 15.28125 46.6875 
L 29.890625 10.984375 
L 44.484375 46.6875 
L 36.71875 46.6875 
L 36.71875 51.90625 
L 56.203125 51.90625 
L 56.203125 46.6875 
L 50.390625 46.6875 
L 31.296875 0 
z
" id="DejaVuSerif-118"/>
      <path d="M 47.796875 52 
L 47.796875 39.015625 
L 42.625 39.015625 
Q 42.390625 42.875 40.484375 44.78125 
Q 38.578125 46.6875 34.90625 46.6875 
Q 28.265625 46.6875 24.71875 42.09375 
Q 21.1875 37.5 21.1875 28.90625 
L 21.1875 5.171875 
L 31.59375 5.171875 
L 31.59375 0 
L 4.109375 0 
L 4.109375 5.171875 
L 12.203125 5.171875 
L 12.203125 46.78125 
L 3.609375 46.78125 
L 3.609375 51.90625 
L 21.1875 51.90625 
L 21.1875 42.671875 
Q 23.828125 48.09375 27.96875 50.703125 
Q 32.125 53.328125 38.09375 53.328125 
Q 40.28125 53.328125 42.703125 52.984375 
Q 45.125 52.640625 47.796875 52 
z
" id="DejaVuSerif-114"/>
      <path d="M 52.484375 46.6875 
L 52.484375 1.125 
Q 52.484375 -10.0625 46.328125 -16.140625 
Q 40.1875 -22.21875 28.8125 -22.21875 
Q 23.6875 -22.21875 19 -21.28125 
Q 14.3125 -20.359375 10.015625 -18.5 
L 10.015625 -7.625 
L 14.703125 -7.625 
Q 15.578125 -12.703125 18.84375 -15.046875 
Q 22.125 -17.390625 28.21875 -17.390625 
Q 36.140625 -17.390625 39.8125 -12.921875 
Q 43.5 -8.453125 43.5 1.125 
L 43.5 8.109375 
Q 40.875 3.21875 36.796875 0.890625 
Q 32.71875 -1.421875 26.703125 -1.421875 
Q 17.140625 -1.421875 11.0625 6.171875 
Q 4.984375 13.765625 4.984375 25.984375 
Q 4.984375 38.1875 11.03125 45.75 
Q 17.09375 53.328125 26.703125 53.328125 
Q 32.71875 53.328125 36.796875 51 
Q 40.875 48.6875 43.5 43.796875 
L 43.5 51.90625 
L 61.078125 51.90625 
L 61.078125 46.6875 
z
M 43.5 28.515625 
Q 43.5 37.84375 39.90625 42.765625 
Q 36.328125 47.703125 29.5 47.703125 
Q 22.5625 47.703125 19.015625 42.234375 
Q 15.484375 36.765625 15.484375 25.984375 
Q 15.484375 15.234375 19.015625 9.71875 
Q 22.5625 4.203125 29.5 4.203125 
Q 36.328125 4.203125 39.90625 9.109375 
Q 43.5 14.015625 43.5 23.390625 
z
" id="DejaVuSerif-103"/>
      <path d="M 30.078125 3.421875 
Q 37.3125 3.421875 40.984375 9.125 
Q 44.671875 14.84375 44.671875 25.984375 
Q 44.671875 37.109375 40.984375 42.796875 
Q 37.3125 48.484375 30.078125 48.484375 
Q 22.859375 48.484375 19.171875 42.796875 
Q 15.484375 37.109375 15.484375 25.984375 
Q 15.484375 14.84375 19.1875 9.125 
Q 22.90625 3.421875 30.078125 3.421875 
z
M 30.078125 -1.421875 
Q 18.75 -1.421875 11.859375 6.078125 
Q 4.984375 13.578125 4.984375 25.984375 
Q 4.984375 38.375 11.84375 45.84375 
Q 18.703125 53.328125 30.078125 53.328125 
Q 41.453125 53.328125 48.3125 45.84375 
Q 55.171875 38.375 55.171875 25.984375 
Q 55.171875 13.578125 48.3125 6.078125 
Q 41.453125 -1.421875 30.078125 -1.421875 
z
" id="DejaVuSerif-111"/>
      <path d="M 43.015625 63.71875 
L 38.28125 63.71875 
Q 38.234375 67.390625 36.203125 69.28125 
Q 34.1875 71.1875 30.328125 71.1875 
Q 25.296875 71.1875 23.234375 68.421875 
Q 21.1875 65.671875 21.1875 58.59375 
L 21.1875 51.90625 
L 35.6875 51.90625 
L 35.6875 46.6875 
L 21.1875 46.6875 
L 21.1875 5.171875 
L 32.71875 5.171875 
L 32.71875 0 
L 3.609375 0 
L 3.609375 5.171875 
L 12.203125 5.171875 
L 12.203125 46.6875 
L 3.609375 46.6875 
L 3.609375 51.90625 
L 12.203125 51.90625 
L 12.203125 58.40625 
Q 12.203125 67.09375 16.71875 71.53125 
Q 21.234375 75.984375 29.984375 75.984375 
Q 33.25 75.984375 36.515625 75.390625 
Q 39.796875 74.8125 43.015625 73.578125 
z
" id="DejaVuSerif-102"/>
      <path d="M 42.1875 -1.421875 
Q 25.4375 -1.421875 15.515625 8.859375 
Q 5.609375 19.140625 5.609375 36.375 
Q 5.609375 45.21875 8.265625 52.171875 
Q 10.9375 59.125 16.40625 64.59375 
Q 21.1875 69.390625 27.34375 71.796875 
Q 33.5 74.21875 41.015625 74.21875 
Q 56.890625 74.21875 66.65625 63.8125 
Q 76.421875 53.421875 76.421875 36.375 
Q 76.421875 21.921875 69.09375 12.078125 
Q 61.765625 2.25 48.875 -0.59375 
Q 51.515625 -3.859375 55.296875 -5.421875 
Q 59.078125 -6.984375 64.40625 -6.984375 
L 65.921875 -6.984375 
L 65.921875 -16.015625 
Q 57.671875 -15.625 51.78125 -11.984375 
Q 45.90625 -8.34375 42.1875 -1.421875 
z
M 41.015625 3.8125 
Q 52.984375 3.8125 59.078125 12.03125 
Q 65.1875 20.265625 65.1875 36.375 
Q 65.1875 52.546875 59.078125 60.765625 
Q 52.984375 69 41.015625 69 
Q 29 69 22.890625 60.765625 
Q 16.796875 52.546875 16.796875 36.375 
Q 16.796875 20.265625 22.890625 12.03125 
Q 29 3.8125 41.015625 3.8125 
z
" id="DejaVuSerif-81"/>
      <path d="M 24.703125 37.109375 
L 37.59375 37.109375 
Q 44.875 37.109375 48.671875 41.03125 
Q 52.484375 44.96875 52.484375 52.390625 
Q 52.484375 59.859375 48.671875 63.765625 
Q 44.875 67.671875 37.59375 67.671875 
L 24.703125 67.671875 
z
M 5.515625 0 
L 5.515625 5.171875 
L 14.796875 5.171875 
L 14.796875 67.671875 
L 5.515625 67.671875 
L 5.515625 72.90625 
L 39.984375 72.90625 
Q 50.921875 72.90625 57.3125 67.359375 
Q 63.71875 61.8125 63.71875 52.390625 
Q 63.71875 43.015625 57.3125 37.453125 
Q 50.921875 31.890625 39.984375 31.890625 
L 24.703125 31.890625 
L 24.703125 5.171875 
L 35.984375 5.171875 
L 35.984375 0 
z
" id="DejaVuSerif-80"/>
      <path d="M 34.90625 24.703125 
L 34.90625 63.484375 
L 10.015625 24.703125 
z
M 56.390625 0 
L 23.1875 0 
L 23.1875 5.171875 
L 34.90625 5.171875 
L 34.90625 19.484375 
L 3.078125 19.484375 
L 3.078125 24.8125 
L 35.015625 74.21875 
L 44.671875 74.21875 
L 44.671875 24.703125 
L 58.59375 24.703125 
L 58.59375 19.484375 
L 44.671875 19.484375 
L 44.671875 5.171875 
L 56.390625 5.171875 
z
" id="DejaVuSerif-52"/>
     </defs>
     <use xlink:href="#DejaVuSerif-65"/>
     <use x="68.216797" xlink:href="#DejaVuSerif-118"/>
     <use x="124.710938" xlink:href="#DejaVuSerif-101"/>
     <use x="183.890625" xlink:href="#DejaVuSerif-114"/>
     <use x="231.693359" xlink:href="#DejaVuSerif-97"/>
     <use x="291.3125" xlink:href="#DejaVuSerif-103"/>
     <use x="355.326172" xlink:href="#DejaVuSerif-101"/>
     <use x="414.505859" xlink:href="#DejaVuSerif-32"/>
     <use x="446.292969" xlink:href="#DejaVuSerif-105"/>
     <use x="478.275391" xlink:href="#DejaVuSerif-110"/>
     <use x="542.679688" xlink:href="#DejaVuSerif-116"/>
     <use x="582.865234" xlink:href="#DejaVuSerif-101"/>
     <use x="642.044922" xlink:href="#DejaVuSerif-110"/>
     <use x="706.449219" xlink:href="#DejaVuSerif-115"/>
     <use x="757.767578" xlink:href="#DejaVuSerif-105"/>
     <use x="789.75" xlink:href="#DejaVuSerif-116"/>
     <use x="829.935547" xlink:href="#DejaVuSerif-121"/>
     <use x="886.429688" xlink:href="#DejaVuSerif-32"/>
     <use x="918.216797" xlink:href="#DejaVuSerif-111"/>
     <use x="978.421875" xlink:href="#DejaVuSerif-102"/>
     <use x="1015.433594" xlink:href="#DejaVuSerif-32"/>
     <use x="1047.220703" xlink:href="#DejaVuSerif-65"/>
     <use x="1119.4375" xlink:href="#DejaVuSerif-81"/>
     <use x="1201.419922" xlink:href="#DejaVuSerif-80"/>
     <use x="1268.705078" xlink:href="#DejaVuSerif-52"/>
     <use x="1332.328125" xlink:href="#DejaVuSerif-32"/>
     <use x="1364.115234" xlink:href="#DejaVuSerif-115"/>
     <use x="1415.433594" xlink:href="#DejaVuSerif-116"/>
     <use x="1455.619141" xlink:href="#DejaVuSerif-97"/>
     <use x="1515.238281" xlink:href="#DejaVuSerif-105"/>
     <use x="1547.220703" xlink:href="#DejaVuSerif-110"/>
     <use x="1611.625" xlink:href="#DejaVuSerif-105"/>
     <use x="1643.607422" xlink:href="#DejaVuSerif-110"/>
     <use x="1708.011719" xlink:href="#DejaVuSerif-103"/>
    </g>
   </g>
   <g id="legend_1">
    <g id="patch_7">
     <path d="M 505.279688 142.434375 
L 637.5 142.434375 
Q 640.5 142.434375 640.5 139.434375 
L 640.5 96.9 
Q 640.5 93.9 637.5 93.9 
L 505.279688 93.9 
Q 502.279688 93.9 502.279688 96.9 
L 502.279688 139.434375 
Q 502.279688 142.434375 505.279688 142.434375 
z
" style="fill:#ffffff;opacity:0.8;stroke:#cccccc;stroke-linejoin:miter;"/>
    </g>
    <g id="line2d_15">
     <path d="M 508.279688 106.047656 
L 538.279688 106.047656 
" style="fill:none;stroke:#ff0000;stroke-linecap:square;stroke-width:1.5;"/>
    </g>
    <g id="line2d_16"/>
    <g id="text_16">
     <!-- Mean day -->
     <g transform="translate(550.279688 111.297656)scale(0.15 -0.15)">
      <defs>
       <path d="M 9.8125 72.90625 
L 24.515625 72.90625 
L 43.109375 23.296875 
L 61.8125 72.90625 
L 76.515625 72.90625 
L 76.515625 0 
L 66.890625 0 
L 66.890625 64.015625 
L 48.09375 14.015625 
L 38.1875 14.015625 
L 19.390625 64.015625 
L 19.390625 0 
L 9.8125 0 
z
" id="DejaVuSans-77"/>
       <path d="M 56.203125 29.59375 
L 56.203125 25.203125 
L 14.890625 25.203125 
Q 15.484375 15.921875 20.484375 11.0625 
Q 25.484375 6.203125 34.421875 6.203125 
Q 39.59375 6.203125 44.453125 7.46875 
Q 49.3125 8.734375 54.109375 11.28125 
L 54.109375 2.78125 
Q 49.265625 0.734375 44.1875 -0.34375 
Q 39.109375 -1.421875 33.890625 -1.421875 
Q 20.796875 -1.421875 13.15625 6.1875 
Q 5.515625 13.8125 5.515625 26.8125 
Q 5.515625 40.234375 12.765625 48.109375 
Q 20.015625 56 32.328125 56 
Q 43.359375 56 49.78125 48.890625 
Q 56.203125 41.796875 56.203125 29.59375 
z
M 47.21875 32.234375 
Q 47.125 39.59375 43.09375 43.984375 
Q 39.0625 48.390625 32.421875 48.390625 
Q 24.90625 48.390625 20.390625 44.140625 
Q 15.875 39.890625 15.1875 32.171875 
z
" id="DejaVuSans-101"/>
       <path d="M 34.28125 27.484375 
Q 23.390625 27.484375 19.1875 25 
Q 14.984375 22.515625 14.984375 16.5 
Q 14.984375 11.71875 18.140625 8.90625 
Q 21.296875 6.109375 26.703125 6.109375 
Q 34.1875 6.109375 38.703125 11.40625 
Q 43.21875 16.703125 43.21875 25.484375 
L 43.21875 27.484375 
z
M 52.203125 31.203125 
L 52.203125 0 
L 43.21875 0 
L 43.21875 8.296875 
Q 40.140625 3.328125 35.546875 0.953125 
Q 30.953125 -1.421875 24.3125 -1.421875 
Q 15.921875 -1.421875 10.953125 3.296875 
Q 6 8.015625 6 15.921875 
Q 6 25.140625 12.171875 29.828125 
Q 18.359375 34.515625 30.609375 34.515625 
L 43.21875 34.515625 
L 43.21875 35.40625 
Q 43.21875 41.609375 39.140625 45 
Q 35.0625 48.390625 27.6875 48.390625 
Q 23 48.390625 18.546875 47.265625 
Q 14.109375 46.140625 10.015625 43.890625 
L 10.015625 52.203125 
Q 14.9375 54.109375 19.578125 55.046875 
Q 24.21875 56 28.609375 56 
Q 40.484375 56 46.34375 49.84375 
Q 52.203125 43.703125 52.203125 31.203125 
z
" id="DejaVuSans-97"/>
       <path d="M 54.890625 33.015625 
L 54.890625 0 
L 45.90625 0 
L 45.90625 32.71875 
Q 45.90625 40.484375 42.875 44.328125 
Q 39.84375 48.1875 33.796875 48.1875 
Q 26.515625 48.1875 22.3125 43.546875 
Q 18.109375 38.921875 18.109375 30.90625 
L 18.109375 0 
L 9.078125 0 
L 9.078125 54.6875 
L 18.109375 54.6875 
L 18.109375 46.1875 
Q 21.34375 51.125 25.703125 53.5625 
Q 30.078125 56 35.796875 56 
Q 45.21875 56 50.046875 50.171875 
Q 54.890625 44.34375 54.890625 33.015625 
z
" id="DejaVuSans-110"/>
       <path id="DejaVuSans-32"/>
       <path d="M 45.40625 46.390625 
L 45.40625 75.984375 
L 54.390625 75.984375 
L 54.390625 0 
L 45.40625 0 
L 45.40625 8.203125 
Q 42.578125 3.328125 38.25 0.953125 
Q 33.9375 -1.421875 27.875 -1.421875 
Q 17.96875 -1.421875 11.734375 6.484375 
Q 5.515625 14.40625 5.515625 27.296875 
Q 5.515625 40.1875 11.734375 48.09375 
Q 17.96875 56 27.875 56 
Q 33.9375 56 38.25 53.625 
Q 42.578125 51.265625 45.40625 46.390625 
z
M 14.796875 27.296875 
Q 14.796875 17.390625 18.875 11.75 
Q 22.953125 6.109375 30.078125 6.109375 
Q 37.203125 6.109375 41.296875 11.75 
Q 45.40625 17.390625 45.40625 27.296875 
Q 45.40625 37.203125 41.296875 42.84375 
Q 37.203125 48.484375 30.078125 48.484375 
Q 22.953125 48.484375 18.875 42.84375 
Q 14.796875 37.203125 14.796875 27.296875 
z
" id="DejaVuSans-100"/>
       <path d="M 32.171875 -5.078125 
Q 28.375 -14.84375 24.75 -17.8125 
Q 21.140625 -20.796875 15.09375 -20.796875 
L 7.90625 -20.796875 
L 7.90625 -13.28125 
L 13.1875 -13.28125 
Q 16.890625 -13.28125 18.9375 -11.515625 
Q 21 -9.765625 23.484375 -3.21875 
L 25.09375 0.875 
L 2.984375 54.6875 
L 12.5 54.6875 
L 29.59375 11.921875 
L 46.6875 54.6875 
L 56.203125 54.6875 
z
" id="DejaVuSans-121"/>
      </defs>
      <use xlink:href="#DejaVuSans-77"/>
      <use x="86.279297" xlink:href="#DejaVuSans-101"/>
      <use x="147.802734" xlink:href="#DejaVuSans-97"/>
      <use x="209.082031" xlink:href="#DejaVuSans-110"/>
      <use x="272.460938" xlink:href="#DejaVuSans-32"/>
      <use x="304.248047" xlink:href="#DejaVuSans-100"/>
      <use x="367.724609" xlink:href="#DejaVuSans-97"/>
      <use x="429.003906" xlink:href="#DejaVuSans-121"/>
     </g>
    </g>
    <g id="line2d_17">
     <path d="M 508.279688 128.064844 
L 538.279688 128.064844 
" style="fill:none;stroke:#0000ff;stroke-linecap:square;stroke-width:1.5;"/>
    </g>
    <g id="line2d_18"/>
    <g id="text_17">
     <!-- Mean night -->
     <g transform="translate(550.279688 133.314844)scale(0.15 -0.15)">
      <defs>
       <path d="M 9.421875 54.6875 
L 18.40625 54.6875 
L 18.40625 0 
L 9.421875 0 
z
M 9.421875 75.984375 
L 18.40625 75.984375 
L 18.40625 64.59375 
L 9.421875 64.59375 
z
" id="DejaVuSans-105"/>
       <path d="M 45.40625 27.984375 
Q 45.40625 37.75 41.375 43.109375 
Q 37.359375 48.484375 30.078125 48.484375 
Q 22.859375 48.484375 18.828125 43.109375 
Q 14.796875 37.75 14.796875 27.984375 
Q 14.796875 18.265625 18.828125 12.890625 
Q 22.859375 7.515625 30.078125 7.515625 
Q 37.359375 7.515625 41.375 12.890625 
Q 45.40625 18.265625 45.40625 27.984375 
z
M 54.390625 6.78125 
Q 54.390625 -7.171875 48.1875 -13.984375 
Q 42 -20.796875 29.203125 -20.796875 
Q 24.46875 -20.796875 20.265625 -20.09375 
Q 16.0625 -19.390625 12.109375 -17.921875 
L 12.109375 -9.1875 
Q 16.0625 -11.328125 19.921875 -12.34375 
Q 23.78125 -13.375 27.78125 -13.375 
Q 36.625 -13.375 41.015625 -8.765625 
Q 45.40625 -4.15625 45.40625 5.171875 
L 45.40625 9.625 
Q 42.625 4.78125 38.28125 2.390625 
Q 33.9375 0 27.875 0 
Q 17.828125 0 11.671875 7.65625 
Q 5.515625 15.328125 5.515625 27.984375 
Q 5.515625 40.671875 11.671875 48.328125 
Q 17.828125 56 27.875 56 
Q 33.9375 56 38.28125 53.609375 
Q 42.625 51.21875 45.40625 46.390625 
L 45.40625 54.6875 
L 54.390625 54.6875 
z
" id="DejaVuSans-103"/>
       <path d="M 54.890625 33.015625 
L 54.890625 0 
L 45.90625 0 
L 45.90625 32.71875 
Q 45.90625 40.484375 42.875 44.328125 
Q 39.84375 48.1875 33.796875 48.1875 
Q 26.515625 48.1875 22.3125 43.546875 
Q 18.109375 38.921875 18.109375 30.90625 
L 18.109375 0 
L 9.078125 0 
L 9.078125 75.984375 
L 18.109375 75.984375 
L 18.109375 46.1875 
Q 21.34375 51.125 25.703125 53.5625 
Q 30.078125 56 35.796875 56 
Q 45.21875 56 50.046875 50.171875 
Q 54.890625 44.34375 54.890625 33.015625 
z
" id="DejaVuSans-104"/>
       <path d="M 18.3125 70.21875 
L 18.3125 54.6875 
L 36.8125 54.6875 
L 36.8125 47.703125 
L 18.3125 47.703125 
L 18.3125 18.015625 
Q 18.3125 11.328125 20.140625 9.421875 
Q 21.96875 7.515625 27.59375 7.515625 
L 36.8125 7.515625 
L 36.8125 0 
L 27.59375 0 
Q 17.1875 0 13.234375 3.875 
Q 9.28125 7.765625 9.28125 18.015625 
L 9.28125 47.703125 
L 2.6875 47.703125 
L 2.6875 54.6875 
L 9.28125 54.6875 
L 9.28125 70.21875 
z
" id="DejaVuSans-116"/>
      </defs>
      <use xlink:href="#DejaVuSans-77"/>
      <use x="86.279297" xlink:href="#DejaVuSans-101"/>
      <use x="147.802734" xlink:href="#DejaVuSans-97"/>
      <use x="209.082031" xlink:href="#DejaVuSans-110"/>
      <use x="272.460938" xlink:href="#DejaVuSans-32"/>
      <use x="304.248047" xlink:href="#DejaVuSans-110"/>
      <use x="367.626953" xlink:href="#DejaVuSans-105"/>
      <use x="395.410156" xlink:href="#DejaVuSans-103"/>
      <use x="458.886719" xlink:href="#DejaVuSans-104"/>
      <use x="522.265625" xlink:href="#DejaVuSans-116"/>
     </g>
    </g>
   </g>
  </g>
 </g>
 <defs>
  <clipPath id="p19f77403b3">
   <rect height="543.6" width="558" x="90" y="86.4"/>
  </clipPath>
 </defs>
</svg>
