<?xml version="1.0" encoding="utf-8" standalone="no"?>
<!DOCTYPE svg PUBLIC "-//W3C//DTD SVG 1.1//EN"
  "http://www.w3.org/Graphics/SVG/1.1/DTD/svg11.dtd">
<!-- Created with matplotlib (https://matplotlib.org/) -->
<svg height="720pt" version="1.1" viewBox="0 0 720 720" width="720pt" xmlns="http://www.w3.org/2000/svg" xmlns:xlink="http://www.w3.org/1999/xlink">
 <metadata>
  <rdf:RDF xmlns:cc="http://creativecommons.org/ns#" xmlns:dc="http://purl.org/dc/elements/1.1/" xmlns:rdf="http://www.w3.org/1999/02/22-rdf-syntax-ns#">
   <cc:Work>
    <dc:type rdf:resource="http://purl.org/dc/dcmitype/StillImage"/>
    <dc:date>2021-08-12T16:16:04.455806</dc:date>
    <dc:format>image/svg+xml</dc:format>
    <dc:creator>
     <cc:Agent>
      <dc:title>Matplotlib v3.3.4, https://matplotlib.org/</dc:title>
     </cc:Agent>
    </dc:creator>
   </cc:Work>
  </rdf:RDF>
 </metadata>
 <defs>
  <style type="text/css">*{stroke-linecap:butt;stroke-linejoin:round;}</style>
 </defs>
 <g id="figure_1">
  <g id="patch_1">
   <path d="M 0 720 
L 720 720 
L 720 0 
L 0 0 
z
" style="fill:none;"/>
  </g>
  <g id="axes_1">
   <g id="patch_2">
    <path d="M 90 630 
L 648 630 
L 648 86.4 
L 90 86.4 
z
" style="fill:#ffffff;"/>
   </g>
   <g id="PolyCollection_1">
    <defs>
     <path d="M 115.363636 -137.563225 
L 115.363636 -126.357625 
L 120.648118 -127.416005 
L 125.932617 -125.480027 
L 131.217099 -122.867877 
L 136.501581 -120.120441 
L 141.78608 -121.108443 
L 147.070562 -125.386159 
L 152.355044 -125.627263 
L 157.639543 -127.94112 
L 162.92022 -123.915343 
L 168.204702 -118.093075 
L 173.489184 -118.209276 
L 178.773683 -120.478006 
L 184.058165 -121.427851 
L 189.342646 -122.351149 
L 194.627145 -127.369225 
L 199.911627 -124.336911 
L 205.196114 -125.635866 
L 210.476797 -129.892592 
L 215.761284 -125.247984 
L 221.045771 -123.63722 
L 226.330259 -121.534869 
L 231.614746 -120.341519 
L 236.899233 -118.008379 
L 242.18372 -119.244534 
L 247.468207 -128.317039 
L 252.752694 -130.384317 
L 258.033377 -128.875242 
L 263.317864 -128.796131 
L 268.602353 -123.742998 
L 273.88684 -121.312214 
L 279.171327 -125.763256 
L 284.455814 -131.5199 
L 289.740301 -141.202544 
L 295.024788 -162.630246 
L 300.309275 -193.027493 
L 305.589957 -250.516408 
L 310.874446 -315.821576 
L 316.158933 -393.673701 
L 321.44342 -461.728583 
L 326.727907 -509.662187 
L 332.012394 -550.609391 
L 337.296881 -543.262698 
L 342.581368 -526.565762 
L 347.865857 -481.624052 
L 353.146539 -441.355356 
L 358.431026 -420.728412 
L 363.715513 -425.588422 
L 369 -431.267047 
L 374.284487 -454.376457 
L 379.568975 -496.802329 
L 384.853462 -540.132568 
L 390.137949 -563.720011 
L 395.422436 -554.205416 
L 400.703119 -515.099129 
L 405.987606 -452.918363 
L 411.272093 -384.141275 
L 416.55658 -326.414975 
L 421.841068 -282.562581 
L 427.125555 -246.351859 
L 432.410042 -207.646834 
L 437.694529 -176.795717 
L 442.979017 -159.80764 
L 448.259699 -143.936281 
L 453.544186 -133.473008 
L 458.828674 -131.132732 
L 464.113161 -124.507685 
L 469.397648 -121.408978 
L 474.682135 -121.440372 
L 479.966622 -124.637366 
L 485.25111 -120.512593 
L 490.535597 -119.631477 
L 495.81628 -114.709091 
L 501.100767 -117.669303 
L 506.385254 -116.463769 
L 511.669741 -120.490075 
L 516.954228 -123.388483 
L 522.238716 -125.680477 
L 527.523203 -129.336448 
L 532.80769 -129.300585 
L 538.092177 -130.190445 
L 543.37286 -133.282943 
L 548.657347 -134.24774 
L 553.941834 -132.715447 
L 559.226322 -133.631159 
L 564.510809 -134.750129 
L 569.795296 -138.298851 
L 575.079783 -137.735393 
L 580.36427 -138.304433 
L 585.648757 -134.656202 
L 590.92944 -129.878303 
L 596.213927 -127.116608 
L 601.498414 -126.483563 
L 606.782903 -131.541389 
L 612.06739 -132.188442 
L 617.351877 -129.62181 
L 622.636364 -127.158225 
L 622.636364 -138.12256 
L 622.636364 -138.12256 
L 617.351877 -140.430564 
L 612.06739 -142.939395 
L 606.782903 -143.103263 
L 601.498414 -136.856689 
L 596.213927 -137.306083 
L 590.92944 -139.856455 
L 585.648757 -144.91616 
L 580.36427 -150.160146 
L 575.079783 -149.13087 
L 569.795296 -150.204693 
L 564.510809 -146.106995 
L 559.226322 -143.993263 
L 553.941834 -144.212813 
L 548.657347 -146.120191 
L 543.37286 -144.651466 
L 538.092177 -141.50459 
L 532.80769 -141.524014 
L 527.523203 -140.072045 
L 522.238716 -136.009946 
L 516.954228 -133.679434 
L 511.669741 -130.546091 
L 506.385254 -126.144177 
L 501.100767 -128.718889 
L 495.81628 -124.772294 
L 490.535597 -129.29614 
L 485.25111 -130.034929 
L 479.966622 -133.375685 
L 474.682135 -131.216946 
L 469.397648 -131.262541 
L 464.113161 -135.264768 
L 458.828674 -144.058101 
L 453.544186 -150.915103 
L 448.259699 -167.771943 
L 442.979017 -188.289098 
L 437.694529 -204.783438 
L 432.410042 -244.989047 
L 427.125555 -292.161294 
L 421.841068 -333.543367 
L 416.55658 -375.98541 
L 411.272093 -436.033735 
L 405.987606 -505.759056 
L 400.703119 -565.818503 
L 395.422436 -601.589107 
L 390.137949 -608.890909 
L 384.853462 -587.474404 
L 379.568975 -542.285364 
L 374.284487 -495.35939 
L 369 -472.145536 
L 363.715513 -465.522982 
L 358.431026 -460.716282 
L 353.146539 -484.18999 
L 347.865857 -525.430488 
L 342.581368 -575.692791 
L 337.296881 -593.265829 
L 332.012394 -604.474606 
L 326.727907 -565.359346 
L 321.44342 -516.818989 
L 316.158933 -448.532729 
L 310.874446 -366.006164 
L 305.589957 -291.808521 
L 300.309275 -224.174226 
L 295.024788 -185.635494 
L 289.740301 -160.819976 
L 284.455814 -150.502297 
L 279.171327 -143.347205 
L 273.88684 -137.057498 
L 268.602353 -135.001747 
L 263.317864 -138.326388 
L 258.033377 -139.069371 
L 252.752694 -141.274723 
L 247.468207 -140.116049 
L 242.18372 -129.330558 
L 236.899233 -127.686249 
L 231.614746 -129.795699 
L 226.330259 -130.938061 
L 221.045771 -131.677158 
L 215.761284 -133.615497 
L 210.476797 -138.51938 
L 205.196114 -133.732342 
L 199.911627 -134.348138 
L 194.627145 -137.146529 
L 189.342646 -132.063389 
L 184.058165 -130.535538 
L 178.773683 -128.167432 
L 173.489184 -126.809161 
L 168.204702 -125.081948 
L 162.92022 -132.146365 
L 157.639543 -137.773778 
L 152.355044 -134.384237 
L 147.070562 -134.081758 
L 141.78608 -130.303143 
L 136.501581 -128.54179 
L 131.217099 -131.832155 
L 125.932617 -135.905769 
L 120.648118 -138.214182 
L 115.363636 -137.563225 
z
" id="ma9cb22cd01" style="stroke:#ff0000;stroke-opacity:0.35;"/>
    </defs>
    <g clip-path="url(#p86aea255b4)">
     <use style="fill:#ff0000;fill-opacity:0.35;stroke:#ff0000;stroke-opacity:0.35;" x="0" xlink:href="#ma9cb22cd01" y="720"/>
    </g>
   </g>
   <g id="PolyCollection_2">
    <defs>
     <path d="M 115.363636 -142.247155 
L 115.363636 -131.611459 
L 120.648118 -128.402878 
L 125.932617 -135.246625 
L 131.217099 -137.699737 
L 136.501581 -137.280609 
L 141.78608 -139.230304 
L 147.070562 -137.866355 
L 152.355044 -134.547657 
L 157.639543 -136.26097 
L 162.92022 -135.37826 
L 168.204702 -134.462695 
L 173.489184 -133.533271 
L 178.773683 -130.944715 
L 184.058165 -128.77358 
L 189.342646 -128.816744 
L 194.627145 -128.921132 
L 199.911627 -132.581848 
L 205.196114 -134.150799 
L 210.476797 -129.033319 
L 215.761284 -125.570134 
L 221.045771 -125.968766 
L 226.330259 -125.232253 
L 231.614746 -124.449944 
L 236.899233 -130.735085 
L 242.18372 -134.078191 
L 247.468207 -131.870493 
L 252.752694 -132.999512 
L 258.033377 -131.145171 
L 263.317864 -132.404468 
L 268.602353 -130.342958 
L 273.88684 -130.673853 
L 279.171327 -134.026252 
L 284.455814 -144.512785 
L 289.740301 -162.900663 
L 295.024788 -194.789928 
L 300.309275 -243.026216 
L 305.589957 -290.818616 
L 310.874446 -327.14118 
L 316.158933 -355.75636 
L 321.44342 -412.44475 
L 326.727907 -464.400238 
L 332.012394 -518.218124 
L 337.296881 -545.609051 
L 342.581368 -543.365547 
L 347.865857 -523.166803 
L 353.146539 -493.706877 
L 358.431026 -463.470862 
L 363.715513 -445.321021 
L 369 -453.976761 
L 374.284487 -482.073357 
L 379.568975 -504.33385 
L 384.853462 -525.182311 
L 390.137949 -531.108398 
L 395.422436 -546.781916 
L 400.703119 -522.150157 
L 405.987606 -450.212971 
L 411.272093 -381.891174 
L 416.55658 -330.883266 
L 421.841068 -296.403079 
L 427.125555 -248.66699 
L 432.410042 -198.532053 
L 437.694529 -162.540328 
L 442.979017 -138.101849 
L 448.259699 -123.957042 
L 453.544186 -123.513113 
L 458.828674 -119.383048 
L 464.113161 -121.119317 
L 469.397648 -118.966737 
L 474.682135 -116.799624 
L 479.966622 -114.912537 
L 485.25111 -115.146465 
L 490.535597 -116.985665 
L 495.81628 -123.933777 
L 501.100767 -130.672688 
L 506.385254 -127.980341 
L 511.669741 -133.198314 
L 516.954228 -132.891098 
L 522.238716 -128.190696 
L 527.523203 -127.666728 
L 532.80769 -130.89495 
L 538.092177 -129.634669 
L 543.37286 -127.53627 
L 548.657347 -126.813601 
L 553.941834 -128.425267 
L 559.226322 -125.883767 
L 564.510809 -123.498453 
L 569.795296 -125.604584 
L 575.079783 -125.743451 
L 580.36427 -129.032008 
L 585.648757 -128.206294 
L 590.92944 -131.230879 
L 596.213927 -134.539466 
L 601.498414 -132.930268 
L 606.782903 -129.641373 
L 612.06739 -123.943219 
L 617.351877 -123.343176 
L 622.636364 -125.940212 
L 622.636364 -133.62749 
L 622.636364 -133.62749 
L 617.351877 -129.622656 
L 612.06739 -131.436914 
L 606.782903 -136.088506 
L 601.498414 -140.285461 
L 596.213927 -144.755028 
L 590.92944 -140.413848 
L 585.648757 -136.776375 
L 580.36427 -137.36682 
L 575.079783 -132.894237 
L 569.795296 -132.560395 
L 564.510809 -131.706888 
L 559.226322 -133.339547 
L 553.941834 -136.148212 
L 548.657347 -135.167398 
L 543.37286 -137.214748 
L 538.092177 -138.908138 
L 532.80769 -141.537999 
L 527.523203 -137.344202 
L 522.238716 -138.254989 
L 516.954228 -143.1563 
L 511.669741 -143.416482 
L 506.385254 -138.074977 
L 501.100767 -142.312643 
L 495.81628 -132.782021 
L 490.535597 -125.613296 
L 485.25111 -124.177685 
L 479.966622 -122.825736 
L 474.682135 -124.340483 
L 469.397648 -126.91233 
L 464.113161 -128.816165 
L 458.828674 -127.569622 
L 453.544186 -131.694591 
L 448.259699 -133.338147 
L 442.979017 -150.979326 
L 437.694529 -185.774879 
L 432.410042 -235.212019 
L 427.125555 -295.117404 
L 421.841068 -347.460288 
L 416.55658 -384.292363 
L 411.272093 -437.578112 
L 405.987606 -503.370493 
L 400.703119 -571.443145 
L 395.422436 -595.934258 
L 390.137949 -579.175182 
L 384.853462 -576.538734 
L 379.568975 -561.780585 
L 374.284487 -540.147374 
L 369 -526.381197 
L 363.715513 -502.157996 
L 358.431026 -525.564094 
L 353.146539 -554.549694 
L 347.865857 -577.55925 
L 342.581368 -597.05668 
L 337.296881 -600.125687 
L 332.012394 -601.566807 
L 326.727907 -562.902153 
L 321.44342 -504.383862 
L 316.158933 -439.076457 
L 310.874446 -406.108291 
L 305.589957 -372.661086 
L 300.309275 -303.279005 
L 295.024788 -235.385051 
L 289.740301 -184.427093 
L 284.455814 -157.223423 
L 279.171327 -144.961786 
L 273.88684 -141.336569 
L 268.602353 -139.699358 
L 263.317864 -142.140026 
L 258.033377 -142.063765 
L 252.752694 -144.467809 
L 247.468207 -142.812926 
L 242.18372 -144.597577 
L 236.899233 -140.828775 
L 231.614746 -133.423088 
L 226.330259 -135.109826 
L 221.045771 -136.073141 
L 215.761284 -134.63641 
L 210.476797 -140.07678 
L 205.196114 -144.804505 
L 199.911627 -141.703529 
L 194.627145 -137.63392 
L 189.342646 -137.64473 
L 184.058165 -138.078978 
L 178.773683 -139.224711 
L 173.489184 -143.486915 
L 168.204702 -144.259336 
L 162.92022 -144.938112 
L 157.639543 -146.560685 
L 152.355044 -144.815698 
L 147.070562 -149.213101 
L 141.78608 -150.395259 
L 136.501581 -146.660221 
L 131.217099 -146.385137 
L 125.932617 -143.973511 
L 120.648118 -138.21421 
L 115.363636 -142.247155 
z
" id="m7b200e781e" style="stroke:#0000ff;stroke-opacity:0.35;"/>
    </defs>
    <g clip-path="url(#p86aea255b4)">
     <use style="fill:#0000ff;fill-opacity:0.35;stroke:#0000ff;stroke-opacity:0.35;" x="0" xlink:href="#m7b200e781e" y="720"/>
    </g>
   </g>
   <g id="matplotlib.axis_1">
    <g id="xtick_1">
     <g id="line2d_1">
      <defs>
       <path d="M 0 0 
L 0 3.5 
" id="m37e07a245c" style="stroke:#000000;stroke-width:0.8;"/>
      </defs>
      <g>
       <use style="stroke:#000000;stroke-width:0.8;" x="115.365158" xlink:href="#m37e07a245c" y="630"/>
      </g>
     </g>
     <g id="text_1">
      <!-- −15 -->
      <g transform="translate(104.812814 644.598438)scale(0.1 -0.1)">
       <defs>
        <path d="M 10.59375 35.5 
L 73.1875 35.5 
L 73.1875 27.203125 
L 10.59375 27.203125 
z
" id="DejaVuSans-8722"/>
        <path d="M 12.40625 8.296875 
L 28.515625 8.296875 
L 28.515625 63.921875 
L 10.984375 60.40625 
L 10.984375 69.390625 
L 28.421875 72.90625 
L 38.28125 72.90625 
L 38.28125 8.296875 
L 54.390625 8.296875 
L 54.390625 0 
L 12.40625 0 
z
" id="DejaVuSans-49"/>
        <path d="M 10.796875 72.90625 
L 49.515625 72.90625 
L 49.515625 64.59375 
L 19.828125 64.59375 
L 19.828125 46.734375 
Q 21.96875 47.46875 24.109375 47.828125 
Q 26.265625 48.1875 28.421875 48.1875 
Q 40.625 48.1875 47.75 41.5 
Q 54.890625 34.8125 54.890625 23.390625 
Q 54.890625 11.625 47.5625 5.09375 
Q 40.234375 -1.421875 26.90625 -1.421875 
Q 22.3125 -1.421875 17.546875 -0.640625 
Q 12.796875 0.140625 7.71875 1.703125 
L 7.71875 11.625 
Q 12.109375 9.234375 16.796875 8.0625 
Q 21.484375 6.890625 26.703125 6.890625 
Q 35.15625 6.890625 40.078125 11.328125 
Q 45.015625 15.765625 45.015625 23.390625 
Q 45.015625 31 40.078125 35.4375 
Q 35.15625 39.890625 26.703125 39.890625 
Q 22.75 39.890625 18.8125 39.015625 
Q 14.890625 38.140625 10.796875 36.28125 
z
" id="DejaVuSans-53"/>
       </defs>
       <use xlink:href="#DejaVuSans-8722"/>
       <use x="83.789062" xlink:href="#DejaVuSans-49"/>
       <use x="147.412109" xlink:href="#DejaVuSans-53"/>
      </g>
     </g>
    </g>
    <g id="xtick_2">
     <g id="line2d_2">
      <g>
       <use style="stroke:#000000;stroke-width:0.8;" x="199.910105" xlink:href="#m37e07a245c" y="630"/>
      </g>
     </g>
     <g id="text_2">
      <!-- −10 -->
      <g transform="translate(189.357762 644.598438)scale(0.1 -0.1)">
       <defs>
        <path d="M 31.78125 66.40625 
Q 24.171875 66.40625 20.328125 58.90625 
Q 16.5 51.421875 16.5 36.375 
Q 16.5 21.390625 20.328125 13.890625 
Q 24.171875 6.390625 31.78125 6.390625 
Q 39.453125 6.390625 43.28125 13.890625 
Q 47.125 21.390625 47.125 36.375 
Q 47.125 51.421875 43.28125 58.90625 
Q 39.453125 66.40625 31.78125 66.40625 
z
M 31.78125 74.21875 
Q 44.046875 74.21875 50.515625 64.515625 
Q 56.984375 54.828125 56.984375 36.375 
Q 56.984375 17.96875 50.515625 8.265625 
Q 44.046875 -1.421875 31.78125 -1.421875 
Q 19.53125 -1.421875 13.0625 8.265625 
Q 6.59375 17.96875 6.59375 36.375 
Q 6.59375 54.828125 13.0625 64.515625 
Q 19.53125 74.21875 31.78125 74.21875 
z
" id="DejaVuSans-48"/>
       </defs>
       <use xlink:href="#DejaVuSans-8722"/>
       <use x="83.789062" xlink:href="#DejaVuSans-49"/>
       <use x="147.412109" xlink:href="#DejaVuSans-48"/>
      </g>
     </g>
    </g>
    <g id="xtick_3">
     <g id="line2d_3">
      <g>
       <use style="stroke:#000000;stroke-width:0.8;" x="284.455053" xlink:href="#m37e07a245c" y="630"/>
      </g>
     </g>
     <g id="text_3">
      <!-- −5 -->
      <g transform="translate(277.083959 644.598438)scale(0.1 -0.1)">
       <use xlink:href="#DejaVuSans-8722"/>
       <use x="83.789062" xlink:href="#DejaVuSans-53"/>
      </g>
     </g>
    </g>
    <g id="xtick_4">
     <g id="line2d_4">
      <g>
       <use style="stroke:#000000;stroke-width:0.8;" x="369" xlink:href="#m37e07a245c" y="630"/>
      </g>
     </g>
     <g id="text_4">
      <!-- 0 -->
      <g transform="translate(365.81875 644.598438)scale(0.1 -0.1)">
       <use xlink:href="#DejaVuSans-48"/>
      </g>
     </g>
    </g>
    <g id="xtick_5">
     <g id="line2d_5">
      <g>
       <use style="stroke:#000000;stroke-width:0.8;" x="453.544947" xlink:href="#m37e07a245c" y="630"/>
      </g>
     </g>
     <g id="text_5">
      <!-- 5 -->
      <g transform="translate(450.363697 644.598438)scale(0.1 -0.1)">
       <use xlink:href="#DejaVuSans-53"/>
      </g>
     </g>
    </g>
    <g id="xtick_6">
     <g id="line2d_6">
      <g>
       <use style="stroke:#000000;stroke-width:0.8;" x="538.089895" xlink:href="#m37e07a245c" y="630"/>
      </g>
     </g>
     <g id="text_6">
      <!-- 10 -->
      <g transform="translate(531.727395 644.598438)scale(0.1 -0.1)">
       <use xlink:href="#DejaVuSans-49"/>
       <use x="63.623047" xlink:href="#DejaVuSans-48"/>
      </g>
     </g>
    </g>
    <g id="xtick_7">
     <g id="line2d_7">
      <g>
       <use style="stroke:#000000;stroke-width:0.8;" x="622.634842" xlink:href="#m37e07a245c" y="630"/>
      </g>
     </g>
     <g id="text_7">
      <!-- 15 -->
      <g transform="translate(616.272342 644.598438)scale(0.1 -0.1)">
       <use xlink:href="#DejaVuSans-49"/>
       <use x="63.623047" xlink:href="#DejaVuSans-53"/>
      </g>
     </g>
    </g>
    <g id="text_8">
     <!-- Distance ($\mu$m) -->
     <g transform="translate(297.8 665.878125)scale(0.2 -0.2)">
      <defs>
       <path d="M 24.703125 5.171875 
L 33.796875 5.171875 
Q 48 5.171875 55.59375 13.28125 
Q 63.1875 21.390625 63.1875 36.53125 
Q 63.1875 51.65625 55.609375 59.65625 
Q 48.046875 67.671875 33.796875 67.671875 
L 24.703125 67.671875 
z
M 5.515625 0 
L 5.515625 5.171875 
L 14.796875 5.171875 
L 14.796875 67.671875 
L 5.515625 67.671875 
L 5.515625 72.90625 
L 34.515625 72.90625 
Q 53.375 72.90625 63.890625 63.28125 
Q 74.421875 53.65625 74.421875 36.53125 
Q 74.421875 19.34375 63.875 9.671875 
Q 53.328125 0 34.515625 0 
z
" id="DejaVuSerif-68"/>
       <path d="M 9.71875 68.015625 
Q 9.71875 70.265625 11.34375 71.921875 
Q 12.984375 73.578125 15.28125 73.578125 
Q 17.53125 73.578125 19.15625 71.921875 
Q 20.796875 70.265625 20.796875 68.015625 
Q 20.796875 65.71875 19.1875 64.109375 
Q 17.578125 62.5 15.28125 62.5 
Q 12.984375 62.5 11.34375 64.109375 
Q 9.71875 65.71875 9.71875 68.015625 
z
M 21.1875 5.171875 
L 29.6875 5.171875 
L 29.6875 0 
L 3.609375 0 
L 3.609375 5.171875 
L 12.203125 5.171875 
L 12.203125 46.6875 
L 3.609375 46.6875 
L 3.609375 51.90625 
L 21.1875 51.90625 
z
" id="DejaVuSerif-105"/>
       <path d="M 5.609375 2.875 
L 5.609375 14.984375 
L 10.796875 14.984375 
Q 10.984375 9.1875 14.421875 6.296875 
Q 17.875 3.421875 24.609375 3.421875 
Q 30.671875 3.421875 33.84375 5.6875 
Q 37.015625 7.953125 37.015625 12.3125 
Q 37.015625 15.71875 34.6875 17.8125 
Q 32.375 19.921875 24.90625 22.3125 
L 18.40625 24.515625 
Q 11.71875 26.65625 8.71875 29.875 
Q 5.71875 33.109375 5.71875 38.09375 
Q 5.71875 45.21875 10.9375 49.265625 
Q 16.15625 53.328125 25.390625 53.328125 
Q 29.5 53.328125 34.03125 52.25 
Q 38.578125 51.171875 43.40625 49.125 
L 43.40625 37.796875 
L 38.234375 37.796875 
Q 38.03125 42.828125 34.703125 45.65625 
Q 31.390625 48.484375 25.6875 48.484375 
Q 20.015625 48.484375 17.109375 46.484375 
Q 14.203125 44.484375 14.203125 40.484375 
Q 14.203125 37.203125 16.40625 35.21875 
Q 18.609375 33.25 25.203125 31.203125 
L 32.328125 29 
Q 39.703125 26.703125 42.9375 23.265625 
Q 46.1875 19.828125 46.1875 14.40625 
Q 46.1875 7.03125 40.546875 2.796875 
Q 34.90625 -1.421875 25 -1.421875 
Q 19.96875 -1.421875 15.1875 -0.34375 
Q 10.40625 0.734375 5.609375 2.875 
z
" id="DejaVuSerif-115"/>
       <path d="M 10.796875 46.6875 
L 2.875 46.6875 
L 2.875 51.90625 
L 10.796875 51.90625 
L 10.796875 68.015625 
L 19.828125 68.015625 
L 19.828125 51.90625 
L 36.71875 51.90625 
L 36.71875 46.6875 
L 19.828125 46.6875 
L 19.828125 13.71875 
Q 19.828125 7.125 21.09375 5.265625 
Q 22.359375 3.421875 25.78125 3.421875 
Q 29.296875 3.421875 30.90625 5.484375 
Q 32.515625 7.5625 32.625 12.203125 
L 39.40625 12.203125 
Q 39.015625 5.125 35.546875 1.84375 
Q 32.078125 -1.421875 25 -1.421875 
Q 17.234375 -1.421875 14.015625 2.015625 
Q 10.796875 5.46875 10.796875 13.71875 
z
" id="DejaVuSerif-116"/>
       <path d="M 39.796875 16.3125 
L 39.796875 27.296875 
L 28.21875 27.296875 
Q 21.53125 27.296875 18.25 24.40625 
Q 14.984375 21.53125 14.984375 15.578125 
Q 14.984375 10.15625 18.296875 6.984375 
Q 21.625 3.8125 27.296875 3.8125 
Q 32.90625 3.8125 36.34375 7.28125 
Q 39.796875 10.75 39.796875 16.3125 
z
M 48.78125 32.421875 
L 48.78125 5.171875 
L 56.78125 5.171875 
L 56.78125 0 
L 39.796875 0 
L 39.796875 5.609375 
Q 36.8125 2 32.90625 0.28125 
Q 29 -1.421875 23.78125 -1.421875 
Q 15.140625 -1.421875 10.0625 3.171875 
Q 4.984375 7.765625 4.984375 15.578125 
Q 4.984375 23.640625 10.796875 28.078125 
Q 16.609375 32.515625 27.203125 32.515625 
L 39.796875 32.515625 
L 39.796875 36.078125 
Q 39.796875 42 36.203125 45.234375 
Q 32.625 48.484375 26.125 48.484375 
Q 20.75 48.484375 17.578125 46.046875 
Q 14.40625 43.609375 13.625 38.8125 
L 8.984375 38.8125 
L 8.984375 49.3125 
Q 13.671875 51.3125 18.09375 52.3125 
Q 22.515625 53.328125 26.703125 53.328125 
Q 37.5 53.328125 43.140625 47.96875 
Q 48.78125 42.625 48.78125 32.421875 
z
" id="DejaVuSerif-97"/>
       <path d="M 4.109375 0 
L 4.109375 5.171875 
L 12.203125 5.171875 
L 12.203125 46.6875 
L 3.609375 46.6875 
L 3.609375 51.90625 
L 21.1875 51.90625 
L 21.1875 42.671875 
Q 23.6875 47.953125 27.65625 50.640625 
Q 31.640625 53.328125 36.921875 53.328125 
Q 45.515625 53.328125 49.5625 48.390625 
Q 53.609375 43.453125 53.609375 33.015625 
L 53.609375 5.171875 
L 61.625 5.171875 
L 61.625 0 
L 36.8125 0 
L 36.8125 5.171875 
L 44.578125 5.171875 
L 44.578125 30.171875 
Q 44.578125 39.703125 42.234375 43.234375 
Q 39.890625 46.78125 33.984375 46.78125 
Q 27.734375 46.78125 24.453125 42.203125 
Q 21.1875 37.640625 21.1875 28.90625 
L 21.1875 5.171875 
L 29 5.171875 
L 29 0 
z
" id="DejaVuSerif-110"/>
       <path d="M 51.421875 15.578125 
Q 49.515625 7.28125 44.09375 2.921875 
Q 38.671875 -1.421875 30.078125 -1.421875 
Q 18.75 -1.421875 11.859375 6.078125 
Q 4.984375 13.578125 4.984375 25.984375 
Q 4.984375 38.421875 11.859375 45.875 
Q 18.75 53.328125 30.078125 53.328125 
Q 35.015625 53.328125 39.890625 52.171875 
Q 44.78125 51.03125 49.703125 48.6875 
L 49.703125 35.40625 
L 44.484375 35.40625 
Q 43.453125 42.234375 40.015625 45.359375 
Q 36.578125 48.484375 30.171875 48.484375 
Q 22.90625 48.484375 19.1875 42.84375 
Q 15.484375 37.203125 15.484375 25.984375 
Q 15.484375 14.75 19.171875 9.078125 
Q 22.859375 3.421875 30.171875 3.421875 
Q 35.984375 3.421875 39.453125 6.4375 
Q 42.921875 9.46875 44.1875 15.578125 
z
" id="DejaVuSerif-99"/>
       <path d="M 54.203125 25 
L 15.484375 25 
L 15.484375 24.609375 
Q 15.484375 14.109375 19.4375 8.765625 
Q 23.390625 3.421875 31.109375 3.421875 
Q 37.015625 3.421875 40.796875 6.515625 
Q 44.578125 9.625 46.09375 15.71875 
L 53.328125 15.71875 
Q 51.171875 7.171875 45.375 2.875 
Q 39.59375 -1.421875 30.171875 -1.421875 
Q 18.796875 -1.421875 11.890625 6.078125 
Q 4.984375 13.578125 4.984375 25.984375 
Q 4.984375 38.28125 11.765625 45.796875 
Q 18.5625 53.328125 29.59375 53.328125 
Q 41.359375 53.328125 47.65625 46.0625 
Q 53.953125 38.8125 54.203125 25 
z
M 43.609375 30.171875 
Q 43.3125 39.265625 39.765625 43.875 
Q 36.234375 48.484375 29.59375 48.484375 
Q 23.390625 48.484375 19.828125 43.84375 
Q 16.265625 39.203125 15.484375 30.171875 
z
" id="DejaVuSerif-101"/>
       <path id="DejaVuSerif-32"/>
       <path d="M 31.890625 -15.578125 
Q 20.015625 -10.25 13.953125 1.296875 
Q 7.90625 12.84375 7.90625 30.171875 
Q 7.90625 47.5625 13.953125 59.109375 
Q 20.015625 70.65625 31.890625 75.984375 
L 31.890625 71.1875 
Q 24.359375 66.015625 21.09375 56.609375 
Q 17.828125 47.21875 17.828125 30.171875 
Q 17.828125 13.1875 21.09375 3.78125 
Q 24.359375 -5.609375 31.890625 -10.796875 
z
" id="DejaVuSerif-40"/>
       <path d="M -1.3125 -20.796875 
L 13.375 54.6875 
L 22.40625 54.6875 
L 15.765625 20.65625 
Q 15.578125 19.625 15.421875 18.359375 
Q 15.28125 17.09375 15.28125 15.828125 
Q 15.28125 11.28125 18.140625 8.828125 
Q 21 6.390625 26.3125 6.390625 
Q 33.546875 6.390625 37.984375 10.484375 
Q 42.4375 14.59375 44 22.796875 
L 50.203125 54.6875 
L 59.1875 54.6875 
L 51.03125 12.640625 
Q 50.828125 11.71875 50.75 11.03125 
Q 50.6875 10.359375 50.6875 9.8125 
Q 50.6875 8.296875 51.296875 7.59375 
Q 51.90625 6.890625 53.21875 6.890625 
Q 53.71875 6.890625 54.5625 7.125 
Q 55.421875 7.375 56.984375 8.015625 
L 55.609375 0.78125 
Q 53.46875 -0.296875 51.515625 -0.859375 
Q 49.5625 -1.421875 47.703125 -1.421875 
Q 44.484375 -1.421875 42.65625 0.625 
Q 40.828125 2.6875 40.828125 6.296875 
Q 38.09375 2.390625 34.296875 0.484375 
Q 30.515625 -1.421875 25.390625 -1.421875 
Q 20.84375 -1.421875 17.453125 0.671875 
Q 14.0625 2.78125 12.984375 6.203125 
L 7.71875 -20.796875 
z
" id="DejaVuSans-Oblique-956"/>
       <path d="M 51.8125 41.796875 
Q 54.390625 47.515625 58.421875 50.421875 
Q 62.453125 53.328125 67.828125 53.328125 
Q 75.984375 53.328125 79.984375 48.265625 
Q 83.984375 43.21875 83.984375 33.015625 
L 83.984375 5.171875 
L 92.09375 5.171875 
L 92.09375 0 
L 67.1875 0 
L 67.1875 5.171875 
L 75 5.171875 
L 75 31.984375 
Q 75 39.9375 72.65625 43.3125 
Q 70.3125 46.6875 64.890625 46.6875 
Q 58.890625 46.6875 55.734375 42.140625 
Q 52.59375 37.59375 52.59375 28.90625 
L 52.59375 5.171875 
L 60.40625 5.171875 
L 60.40625 0 
L 35.796875 0 
L 35.796875 5.171875 
L 43.609375 5.171875 
L 43.609375 32.328125 
Q 43.609375 40.09375 41.265625 43.390625 
Q 38.921875 46.6875 33.5 46.6875 
Q 27.484375 46.6875 24.328125 42.140625 
Q 21.1875 37.59375 21.1875 28.90625 
L 21.1875 5.171875 
L 29 5.171875 
L 29 0 
L 4.109375 0 
L 4.109375 5.171875 
L 12.203125 5.171875 
L 12.203125 46.78125 
L 3.609375 46.78125 
L 3.609375 51.90625 
L 21.1875 51.90625 
L 21.1875 42.671875 
Q 23.6875 47.859375 27.53125 50.59375 
Q 31.390625 53.328125 36.28125 53.328125 
Q 42.328125 53.328125 46.375 50.3125 
Q 50.4375 47.3125 51.8125 41.796875 
z
" id="DejaVuSerif-109"/>
       <path d="M 7.078125 -15.578125 
L 7.078125 -10.796875 
Q 14.59375 -5.609375 17.890625 3.78125 
Q 21.1875 13.1875 21.1875 30.171875 
Q 21.1875 47.21875 17.890625 56.609375 
Q 14.59375 66.015625 7.078125 71.1875 
L 7.078125 75.984375 
Q 19 70.65625 25.046875 59.109375 
Q 31.109375 47.5625 31.109375 30.171875 
Q 31.109375 12.84375 25.046875 1.296875 
Q 19 -10.25 7.078125 -15.578125 
z
" id="DejaVuSerif-41"/>
      </defs>
      <use transform="translate(0 0.015625)" xlink:href="#DejaVuSerif-68"/>
      <use transform="translate(80.175781 0.015625)" xlink:href="#DejaVuSerif-105"/>
      <use transform="translate(112.158203 0.015625)" xlink:href="#DejaVuSerif-115"/>
      <use transform="translate(163.476562 0.015625)" xlink:href="#DejaVuSerif-116"/>
      <use transform="translate(203.662109 0.015625)" xlink:href="#DejaVuSerif-97"/>
      <use transform="translate(263.28125 0.015625)" xlink:href="#DejaVuSerif-110"/>
      <use transform="translate(327.685547 0.015625)" xlink:href="#DejaVuSerif-99"/>
      <use transform="translate(383.691406 0.015625)" xlink:href="#DejaVuSerif-101"/>
      <use transform="translate(442.871094 0.015625)" xlink:href="#DejaVuSerif-32"/>
      <use transform="translate(474.658203 0.015625)" xlink:href="#DejaVuSerif-40"/>
      <use transform="translate(513.671875 0.015625)" xlink:href="#DejaVuSans-Oblique-956"/>
      <use transform="translate(577.294922 0.015625)" xlink:href="#DejaVuSerif-109"/>
      <use transform="translate(672.119141 0.015625)" xlink:href="#DejaVuSerif-41"/>
     </g>
    </g>
   </g>
   <g id="matplotlib.axis_2">
    <g id="ytick_1">
     <g id="line2d_8">
      <defs>
       <path d="M 0 0 
L -3.5 0 
" id="m2d2b4ddfc6" style="stroke:#000000;stroke-width:0.8;"/>
      </defs>
      <g>
       <use style="stroke:#000000;stroke-width:0.8;" x="90" xlink:href="#m2d2b4ddfc6" y="602.369901"/>
      </g>
     </g>
     <g id="text_9">
      <!-- −0.5 -->
      <g transform="translate(58.717187 606.16912)scale(0.1 -0.1)">
       <defs>
        <path d="M 10.6875 12.40625 
L 21 12.40625 
L 21 0 
L 10.6875 0 
z
" id="DejaVuSans-46"/>
       </defs>
       <use xlink:href="#DejaVuSans-8722"/>
       <use x="83.789062" xlink:href="#DejaVuSans-48"/>
       <use x="147.412109" xlink:href="#DejaVuSans-46"/>
       <use x="179.199219" xlink:href="#DejaVuSans-53"/>
      </g>
     </g>
    </g>
    <g id="ytick_2">
     <g id="line2d_9">
      <g>
       <use style="stroke:#000000;stroke-width:0.8;" x="90" xlink:href="#m2d2b4ddfc6" y="502.509161"/>
      </g>
     </g>
     <g id="text_10">
      <!-- 0.0 -->
      <g transform="translate(67.096875 506.30838)scale(0.1 -0.1)">
       <use xlink:href="#DejaVuSans-48"/>
       <use x="63.623047" xlink:href="#DejaVuSans-46"/>
       <use x="95.410156" xlink:href="#DejaVuSans-48"/>
      </g>
     </g>
    </g>
    <g id="ytick_3">
     <g id="line2d_10">
      <g>
       <use style="stroke:#000000;stroke-width:0.8;" x="90" xlink:href="#m2d2b4ddfc6" y="402.648421"/>
      </g>
     </g>
     <g id="text_11">
      <!-- 0.5 -->
      <g transform="translate(67.096875 406.44764)scale(0.1 -0.1)">
       <use xlink:href="#DejaVuSans-48"/>
       <use x="63.623047" xlink:href="#DejaVuSans-46"/>
       <use x="95.410156" xlink:href="#DejaVuSans-53"/>
      </g>
     </g>
    </g>
    <g id="ytick_4">
     <g id="line2d_11">
      <g>
       <use style="stroke:#000000;stroke-width:0.8;" x="90" xlink:href="#m2d2b4ddfc6" y="302.787681"/>
      </g>
     </g>
     <g id="text_12">
      <!-- 1.0 -->
      <g transform="translate(67.096875 306.5869)scale(0.1 -0.1)">
       <use xlink:href="#DejaVuSans-49"/>
       <use x="63.623047" xlink:href="#DejaVuSans-46"/>
       <use x="95.410156" xlink:href="#DejaVuSans-48"/>
      </g>
     </g>
    </g>
    <g id="ytick_5">
     <g id="line2d_12">
      <g>
       <use style="stroke:#000000;stroke-width:0.8;" x="90" xlink:href="#m2d2b4ddfc6" y="202.926941"/>
      </g>
     </g>
     <g id="text_13">
      <!-- 1.5 -->
      <g transform="translate(67.096875 206.72616)scale(0.1 -0.1)">
       <use xlink:href="#DejaVuSans-49"/>
       <use x="63.623047" xlink:href="#DejaVuSans-46"/>
       <use x="95.410156" xlink:href="#DejaVuSans-53"/>
      </g>
     </g>
    </g>
    <g id="ytick_6">
     <g id="line2d_13">
      <g>
       <use style="stroke:#000000;stroke-width:0.8;" x="90" xlink:href="#m2d2b4ddfc6" y="103.066201"/>
      </g>
     </g>
     <g id="text_14">
      <!-- 2.0 -->
      <g transform="translate(67.096875 106.86542)scale(0.1 -0.1)">
       <defs>
        <path d="M 19.1875 8.296875 
L 53.609375 8.296875 
L 53.609375 0 
L 7.328125 0 
L 7.328125 8.296875 
Q 12.9375 14.109375 22.625 23.890625 
Q 32.328125 33.6875 34.8125 36.53125 
Q 39.546875 41.84375 41.421875 45.53125 
Q 43.3125 49.21875 43.3125 52.78125 
Q 43.3125 58.59375 39.234375 62.25 
Q 35.15625 65.921875 28.609375 65.921875 
Q 23.96875 65.921875 18.8125 64.3125 
Q 13.671875 62.703125 7.8125 59.421875 
L 7.8125 69.390625 
Q 13.765625 71.78125 18.9375 73 
Q 24.125 74.21875 28.421875 74.21875 
Q 39.75 74.21875 46.484375 68.546875 
Q 53.21875 62.890625 53.21875 53.421875 
Q 53.21875 48.921875 51.53125 44.890625 
Q 49.859375 40.875 45.40625 35.40625 
Q 44.1875 33.984375 37.640625 27.21875 
Q 31.109375 20.453125 19.1875 8.296875 
z
" id="DejaVuSans-50"/>
       </defs>
       <use xlink:href="#DejaVuSans-50"/>
       <use x="63.623047" xlink:href="#DejaVuSans-46"/>
       <use x="95.410156" xlink:href="#DejaVuSans-48"/>
      </g>
     </g>
    </g>
    <g id="text_15">
     <!-- Intensity (A.U) -->
     <g transform="translate(50.273437 432.776563)rotate(-90)scale(0.2 -0.2)">
      <defs>
       <path d="M 24.703125 5.171875 
L 33.984375 5.171875 
L 33.984375 0 
L 5.515625 0 
L 5.515625 5.171875 
L 14.796875 5.171875 
L 14.796875 67.671875 
L 5.515625 67.671875 
L 5.515625 72.90625 
L 33.984375 72.90625 
L 33.984375 67.671875 
L 24.703125 67.671875 
z
" id="DejaVuSerif-73"/>
       <path d="M 21.578125 -9.515625 
L 25 -0.875 
L 5.609375 46.6875 
L -0.296875 46.6875 
L -0.296875 51.90625 
L 23.578125 51.90625 
L 23.578125 46.6875 
L 15.28125 46.6875 
L 29.890625 10.984375 
L 44.484375 46.6875 
L 36.71875 46.6875 
L 36.71875 51.90625 
L 56.203125 51.90625 
L 56.203125 46.6875 
L 50.390625 46.6875 
L 26.609375 -11.71875 
Q 24.171875 -17.78125 21.1875 -20 
Q 18.21875 -22.21875 12.796875 -22.21875 
Q 10.5 -22.21875 8.078125 -21.828125 
Q 5.671875 -21.4375 3.21875 -20.703125 
L 3.21875 -10.796875 
L 7.8125 -10.796875 
Q 8.109375 -14.109375 9.5 -15.546875 
Q 10.890625 -17 13.8125 -17 
Q 16.5 -17 18.140625 -15.5 
Q 19.78125 -14.015625 21.578125 -9.515625 
z
" id="DejaVuSerif-121"/>
       <path d="M 20.015625 26.421875 
L 46.78125 26.421875 
L 33.40625 61.078125 
z
M -0.59375 0 
L -0.59375 5.171875 
L 5.8125 5.171875 
L 31.78125 72.90625 
L 39.984375 72.90625 
L 66.015625 5.171875 
L 73.1875 5.171875 
L 73.1875 0 
L 46.6875 0 
L 46.6875 5.171875 
L 54.78125 5.171875 
L 48.6875 21.1875 
L 18.015625 21.1875 
L 11.921875 5.171875 
L 19.921875 5.171875 
L 19.921875 0 
z
" id="DejaVuSerif-65"/>
       <path d="M 9.421875 5.078125 
Q 9.421875 7.8125 11.28125 9.71875 
Q 13.140625 11.625 15.921875 11.625 
Q 18.609375 11.625 20.5 9.71875 
Q 22.40625 7.8125 22.40625 5.078125 
Q 22.40625 2.390625 20.5 0.484375 
Q 18.609375 -1.421875 15.921875 -1.421875 
Q 13.140625 -1.421875 11.28125 0.453125 
Q 9.421875 2.34375 9.421875 5.078125 
z
" id="DejaVuSerif-46"/>
       <path d="M 14.015625 67.671875 
L 4.6875 67.671875 
L 4.6875 72.90625 
L 33.203125 72.90625 
L 33.203125 67.671875 
L 23.875 67.671875 
L 23.875 29.984375 
Q 23.875 16.015625 28.4375 10.5 
Q 33.015625 4.984375 44.1875 4.984375 
Q 55.375 4.984375 59.9375 10.5 
Q 64.5 16.015625 64.5 29.984375 
L 64.5 67.671875 
L 55.171875 67.671875 
L 55.171875 72.90625 
L 79.78125 72.90625 
L 79.78125 67.671875 
L 70.515625 67.671875 
L 70.515625 29 
Q 70.515625 12.359375 64.109375 5.46875 
Q 57.71875 -1.421875 42.390625 -1.421875 
Q 27.046875 -1.421875 20.53125 5.515625 
Q 14.015625 12.453125 14.015625 29 
z
" id="DejaVuSerif-85"/>
      </defs>
      <use xlink:href="#DejaVuSerif-73"/>
      <use x="39.501953" xlink:href="#DejaVuSerif-110"/>
      <use x="103.90625" xlink:href="#DejaVuSerif-116"/>
      <use x="144.091797" xlink:href="#DejaVuSerif-101"/>
      <use x="203.271484" xlink:href="#DejaVuSerif-110"/>
      <use x="267.675781" xlink:href="#DejaVuSerif-115"/>
      <use x="318.994141" xlink:href="#DejaVuSerif-105"/>
      <use x="350.976562" xlink:href="#DejaVuSerif-116"/>
      <use x="391.162109" xlink:href="#DejaVuSerif-121"/>
      <use x="447.65625" xlink:href="#DejaVuSerif-32"/>
      <use x="479.443359" xlink:href="#DejaVuSerif-40"/>
      <use x="518.457031" xlink:href="#DejaVuSerif-65"/>
      <use x="590.673828" xlink:href="#DejaVuSerif-46"/>
      <use x="622.460938" xlink:href="#DejaVuSerif-85"/>
      <use x="706.738281" xlink:href="#DejaVuSerif-41"/>
     </g>
    </g>
   </g>
   <g id="line2d_14">
    <path clip-path="url(#p86aea255b4)" d="M 115.363636 588.039575 
L 120.648118 587.184907 
L 125.932617 589.307102 
L 131.217099 592.649984 
L 136.501581 595.668885 
L 141.78608 594.294207 
L 147.070562 590.266042 
L 152.355044 589.99425 
L 157.639543 587.142551 
L 162.92022 591.969146 
L 168.204702 598.412489 
L 173.489184 597.490782 
L 178.773683 595.677281 
L 184.058165 594.018306 
L 189.342646 592.792731 
L 194.627145 587.742123 
L 199.911627 590.657475 
L 205.196114 590.315896 
L 210.476797 585.794014 
L 215.761284 590.56826 
L 221.045771 592.342811 
L 226.330259 593.763535 
L 231.614746 594.931391 
L 236.899233 597.152686 
L 242.18372 595.712454 
L 247.468207 585.783456 
L 252.752694 584.17048 
L 258.033377 586.027694 
L 263.317864 586.43874 
L 268.602353 590.627628 
L 273.88684 590.815144 
L 279.171327 585.44477 
L 284.455814 578.988901 
L 289.740301 568.98874 
L 295.024788 545.86713 
L 300.309275 511.399141 
L 305.589957 448.837535 
L 310.874446 379.08613 
L 316.158933 298.896785 
L 321.44342 230.726214 
L 326.727907 182.489233 
L 332.012394 142.458002 
L 337.296881 151.735736 
L 342.581368 168.870723 
L 347.865857 216.47273 
L 353.146539 257.227327 
L 358.431026 279.277653 
L 363.715513 274.444298 
L 369 268.293709 
L 374.284487 245.132077 
L 379.568975 200.456154 
L 384.853462 156.196514 
L 390.137949 133.69454 
L 395.422436 142.102738 
L 400.703119 179.541184 
L 405.987606 240.66129 
L 411.272093 309.912495 
L 416.55658 368.799807 
L 421.841068 411.947026 
L 427.125555 450.743424 
L 432.410042 493.682059 
L 437.694529 529.210422 
L 442.979017 545.951631 
L 448.259699 564.145888 
L 453.544186 577.805945 
L 458.828674 582.404584 
L 464.113161 590.113773 
L 469.397648 593.664241 
L 474.682135 593.671341 
L 479.966622 590.993474 
L 485.25111 594.726239 
L 490.535597 595.536192 
L 495.81628 600.259308 
L 501.100767 596.805904 
L 506.385254 598.696027 
L 511.669741 594.481917 
L 516.954228 591.466042 
L 522.238716 589.154788 
L 527.523203 585.295754 
L 532.80769 584.587701 
L 538.092177 584.152483 
L 543.37286 581.032796 
L 548.657347 579.816035 
L 553.941834 581.53587 
L 559.226322 581.187789 
L 564.510809 579.571438 
L 569.795296 575.748228 
L 575.079783 576.566869 
L 580.36427 575.767711 
L 585.648757 580.213819 
L 590.92944 585.132621 
L 596.213927 587.788655 
L 601.498414 588.329874 
L 606.782903 582.677674 
L 612.06739 582.436081 
L 617.351877 584.973813 
L 622.636364 587.359608 
" style="fill:none;stroke:#ff0000;stroke-linecap:square;stroke-width:1.5;"/>
   </g>
   <g id="line2d_15">
    <path clip-path="url(#p86aea255b4)" d="M 115.363636 583.070693 
L 120.648118 586.691456 
L 125.932617 580.389932 
L 131.217099 577.957563 
L 136.501581 578.029585 
L 141.78608 575.187218 
L 147.070562 576.460272 
L 152.355044 580.318323 
L 157.639543 578.589173 
L 162.92022 579.841814 
L 168.204702 580.638984 
L 173.489184 581.489907 
L 178.773683 584.915287 
L 184.058165 586.573721 
L 189.342646 586.769263 
L 194.627145 586.722474 
L 199.911627 582.857311 
L 205.196114 580.522348 
L 210.476797 585.444951 
L 215.761284 589.896728 
L 221.045771 588.979046 
L 226.330259 589.82896 
L 231.614746 591.063484 
L 236.899233 584.21807 
L 242.18372 580.662116 
L 247.468207 582.658291 
L 252.752694 581.26634 
L 258.033377 583.395532 
L 263.317864 582.727753 
L 268.602353 584.978842 
L 273.88684 583.994789 
L 279.171327 580.505981 
L 284.455814 569.131896 
L 289.740301 546.336122 
L 295.024788 504.912511 
L 300.309275 446.84739 
L 305.589957 388.260149 
L 310.874446 353.375264 
L 316.158933 322.583591 
L 321.44342 261.585694 
L 326.727907 206.348804 
L 332.012394 160.107534 
L 337.296881 147.132631 
L 342.581368 149.788887 
L 347.865857 169.636973 
L 353.146539 195.871714 
L 358.431026 225.482522 
L 363.715513 246.260492 
L 369 229.821021 
L 374.284487 208.889634 
L 379.568975 186.942782 
L 384.853462 169.139478 
L 390.137949 164.85821 
L 395.422436 148.641913 
L 400.703119 173.203349 
L 405.987606 243.208268 
L 411.272093 310.265357 
L 416.55658 362.412185 
L 421.841068 398.068317 
L 427.125555 448.107803 
L 432.410042 503.127964 
L 437.694529 545.842396 
L 442.979017 575.459412 
L 448.259699 591.352406 
L 453.544186 592.396148 
L 458.828674 596.523665 
L 464.113161 595.032259 
L 469.397648 597.060467 
L 474.682135 599.429947 
L 479.966622 601.130863 
L 485.25111 600.337925 
L 490.535597 598.70052 
L 495.81628 591.642101 
L 501.100767 583.507334 
L 506.385254 586.972341 
L 511.669741 581.692602 
L 516.954228 581.976301 
L 522.238716 586.777157 
L 527.523203 587.494535 
L 532.80769 583.783526 
L 538.092177 585.728596 
L 543.37286 587.624491 
L 548.657347 589.0095 
L 553.941834 587.71326 
L 559.226322 590.388343 
L 564.510809 592.397329 
L 569.795296 590.917511 
L 575.079783 590.681156 
L 580.36427 586.800586 
L 585.648757 587.508665 
L 590.92944 584.177637 
L 596.213927 580.352753 
L 601.498414 583.392136 
L 606.782903 587.135061 
L 612.06739 592.309933 
L 617.351877 593.517084 
L 622.636364 590.216149 
" style="fill:none;stroke:#0000ff;stroke-linecap:square;stroke-width:1.5;"/>
   </g>
   <g id="patch_3">
    <path d="M 90 630 
L 90 86.4 
" style="fill:none;stroke:#000000;stroke-linecap:square;stroke-linejoin:miter;stroke-width:0.8;"/>
   </g>
   <g id="patch_4">
    <path d="M 648 630 
L 648 86.4 
" style="fill:none;stroke:#000000;stroke-linecap:square;stroke-linejoin:miter;stroke-width:0.8;"/>
   </g>
   <g id="patch_5">
    <path d="M 90 630 
L 648 630 
" style="fill:none;stroke:#000000;stroke-linecap:square;stroke-linejoin:miter;stroke-width:0.8;"/>
   </g>
   <g id="patch_6">
    <path d="M 90 86.4 
L 648 86.4 
" style="fill:none;stroke:#000000;stroke-linecap:square;stroke-linejoin:miter;stroke-width:0.8;"/>
   </g>
   <g id="text_16">
    <!-- Average intensity of AQP4 staining -->
    <g transform="translate(147.492188 80.4)scale(0.25 -0.25)">
     <defs>
      <path d="M 24.703125 0 
L 5.609375 46.6875 
L -0.296875 46.6875 
L -0.296875 51.90625 
L 23.578125 51.90625 
L 23.578125 46.6875 
L 15.28125 46.6875 
L 29.890625 10.984375 
L 44.484375 46.6875 
L 36.71875 46.6875 
L 36.71875 51.90625 
L 56.203125 51.90625 
L 56.203125 46.6875 
L 50.390625 46.6875 
L 31.296875 0 
z
" id="DejaVuSerif-118"/>
      <path d="M 47.796875 52 
L 47.796875 39.015625 
L 42.625 39.015625 
Q 42.390625 42.875 40.484375 44.78125 
Q 38.578125 46.6875 34.90625 46.6875 
Q 28.265625 46.6875 24.71875 42.09375 
Q 21.1875 37.5 21.1875 28.90625 
L 21.1875 5.171875 
L 31.59375 5.171875 
L 31.59375 0 
L 4.109375 0 
L 4.109375 5.171875 
L 12.203125 5.171875 
L 12.203125 46.78125 
L 3.609375 46.78125 
L 3.609375 51.90625 
L 21.1875 51.90625 
L 21.1875 42.671875 
Q 23.828125 48.09375 27.96875 50.703125 
Q 32.125 53.328125 38.09375 53.328125 
Q 40.28125 53.328125 42.703125 52.984375 
Q 45.125 52.640625 47.796875 52 
z
" id="DejaVuSerif-114"/>
      <path d="M 52.484375 46.6875 
L 52.484375 1.125 
Q 52.484375 -10.0625 46.328125 -16.140625 
Q 40.1875 -22.21875 28.8125 -22.21875 
Q 23.6875 -22.21875 19 -21.28125 
Q 14.3125 -20.359375 10.015625 -18.5 
L 10.015625 -7.625 
L 14.703125 -7.625 
Q 15.578125 -12.703125 18.84375 -15.046875 
Q 22.125 -17.390625 28.21875 -17.390625 
Q 36.140625 -17.390625 39.8125 -12.921875 
Q 43.5 -8.453125 43.5 1.125 
L 43.5 8.109375 
Q 40.875 3.21875 36.796875 0.890625 
Q 32.71875 -1.421875 26.703125 -1.421875 
Q 17.140625 -1.421875 11.0625 6.171875 
Q 4.984375 13.765625 4.984375 25.984375 
Q 4.984375 38.1875 11.03125 45.75 
Q 17.09375 53.328125 26.703125 53.328125 
Q 32.71875 53.328125 36.796875 51 
Q 40.875 48.6875 43.5 43.796875 
L 43.5 51.90625 
L 61.078125 51.90625 
L 61.078125 46.6875 
z
M 43.5 28.515625 
Q 43.5 37.84375 39.90625 42.765625 
Q 36.328125 47.703125 29.5 47.703125 
Q 22.5625 47.703125 19.015625 42.234375 
Q 15.484375 36.765625 15.484375 25.984375 
Q 15.484375 15.234375 19.015625 9.71875 
Q 22.5625 4.203125 29.5 4.203125 
Q 36.328125 4.203125 39.90625 9.109375 
Q 43.5 14.015625 43.5 23.390625 
z
" id="DejaVuSerif-103"/>
      <path d="M 30.078125 3.421875 
Q 37.3125 3.421875 40.984375 9.125 
Q 44.671875 14.84375 44.671875 25.984375 
Q 44.671875 37.109375 40.984375 42.796875 
Q 37.3125 48.484375 30.078125 48.484375 
Q 22.859375 48.484375 19.171875 42.796875 
Q 15.484375 37.109375 15.484375 25.984375 
Q 15.484375 14.84375 19.1875 9.125 
Q 22.90625 3.421875 30.078125 3.421875 
z
M 30.078125 -1.421875 
Q 18.75 -1.421875 11.859375 6.078125 
Q 4.984375 13.578125 4.984375 25.984375 
Q 4.984375 38.375 11.84375 45.84375 
Q 18.703125 53.328125 30.078125 53.328125 
Q 41.453125 53.328125 48.3125 45.84375 
Q 55.171875 38.375 55.171875 25.984375 
Q 55.171875 13.578125 48.3125 6.078125 
Q 41.453125 -1.421875 30.078125 -1.421875 
z
" id="DejaVuSerif-111"/>
      <path d="M 43.015625 63.71875 
L 38.28125 63.71875 
Q 38.234375 67.390625 36.203125 69.28125 
Q 34.1875 71.1875 30.328125 71.1875 
Q 25.296875 71.1875 23.234375 68.421875 
Q 21.1875 65.671875 21.1875 58.59375 
L 21.1875 51.90625 
L 35.6875 51.90625 
L 35.6875 46.6875 
L 21.1875 46.6875 
L 21.1875 5.171875 
L 32.71875 5.171875 
L 32.71875 0 
L 3.609375 0 
L 3.609375 5.171875 
L 12.203125 5.171875 
L 12.203125 46.6875 
L 3.609375 46.6875 
L 3.609375 51.90625 
L 12.203125 51.90625 
L 12.203125 58.40625 
Q 12.203125 67.09375 16.71875 71.53125 
Q 21.234375 75.984375 29.984375 75.984375 
Q 33.25 75.984375 36.515625 75.390625 
Q 39.796875 74.8125 43.015625 73.578125 
z
" id="DejaVuSerif-102"/>
      <path d="M 42.1875 -1.421875 
Q 25.4375 -1.421875 15.515625 8.859375 
Q 5.609375 19.140625 5.609375 36.375 
Q 5.609375 45.21875 8.265625 52.171875 
Q 10.9375 59.125 16.40625 64.59375 
Q 21.1875 69.390625 27.34375 71.796875 
Q 33.5 74.21875 41.015625 74.21875 
Q 56.890625 74.21875 66.65625 63.8125 
Q 76.421875 53.421875 76.421875 36.375 
Q 76.421875 21.921875 69.09375 12.078125 
Q 61.765625 2.25 48.875 -0.59375 
Q 51.515625 -3.859375 55.296875 -5.421875 
Q 59.078125 -6.984375 64.40625 -6.984375 
L 65.921875 -6.984375 
L 65.921875 -16.015625 
Q 57.671875 -15.625 51.78125 -11.984375 
Q 45.90625 -8.34375 42.1875 -1.421875 
z
M 41.015625 3.8125 
Q 52.984375 3.8125 59.078125 12.03125 
Q 65.1875 20.265625 65.1875 36.375 
Q 65.1875 52.546875 59.078125 60.765625 
Q 52.984375 69 41.015625 69 
Q 29 69 22.890625 60.765625 
Q 16.796875 52.546875 16.796875 36.375 
Q 16.796875 20.265625 22.890625 12.03125 
Q 29 3.8125 41.015625 3.8125 
z
" id="DejaVuSerif-81"/>
      <path d="M 24.703125 37.109375 
L 37.59375 37.109375 
Q 44.875 37.109375 48.671875 41.03125 
Q 52.484375 44.96875 52.484375 52.390625 
Q 52.484375 59.859375 48.671875 63.765625 
Q 44.875 67.671875 37.59375 67.671875 
L 24.703125 67.671875 
z
M 5.515625 0 
L 5.515625 5.171875 
L 14.796875 5.171875 
L 14.796875 67.671875 
L 5.515625 67.671875 
L 5.515625 72.90625 
L 39.984375 72.90625 
Q 50.921875 72.90625 57.3125 67.359375 
Q 63.71875 61.8125 63.71875 52.390625 
Q 63.71875 43.015625 57.3125 37.453125 
Q 50.921875 31.890625 39.984375 31.890625 
L 24.703125 31.890625 
L 24.703125 5.171875 
L 35.984375 5.171875 
L 35.984375 0 
z
" id="DejaVuSerif-80"/>
      <path d="M 34.90625 24.703125 
L 34.90625 63.484375 
L 10.015625 24.703125 
z
M 56.390625 0 
L 23.1875 0 
L 23.1875 5.171875 
L 34.90625 5.171875 
L 34.90625 19.484375 
L 3.078125 19.484375 
L 3.078125 24.8125 
L 35.015625 74.21875 
L 44.671875 74.21875 
L 44.671875 24.703125 
L 58.59375 24.703125 
L 58.59375 19.484375 
L 44.671875 19.484375 
L 44.671875 5.171875 
L 56.390625 5.171875 
z
" id="DejaVuSerif-52"/>
     </defs>
     <use xlink:href="#DejaVuSerif-65"/>
     <use x="68.216797" xlink:href="#DejaVuSerif-118"/>
     <use x="124.710938" xlink:href="#DejaVuSerif-101"/>
     <use x="183.890625" xlink:href="#DejaVuSerif-114"/>
     <use x="231.693359" xlink:href="#DejaVuSerif-97"/>
     <use x="291.3125" xlink:href="#DejaVuSerif-103"/>
     <use x="355.326172" xlink:href="#DejaVuSerif-101"/>
     <use x="414.505859" xlink:href="#DejaVuSerif-32"/>
     <use x="446.292969" xlink:href="#DejaVuSerif-105"/>
     <use x="478.275391" xlink:href="#DejaVuSerif-110"/>
     <use x="542.679688" xlink:href="#DejaVuSerif-116"/>
     <use x="582.865234" xlink:href="#DejaVuSerif-101"/>
     <use x="642.044922" xlink:href="#DejaVuSerif-110"/>
     <use x="706.449219" xlink:href="#DejaVuSerif-115"/>
     <use x="757.767578" xlink:href="#DejaVuSerif-105"/>
     <use x="789.75" xlink:href="#DejaVuSerif-116"/>
     <use x="829.935547" xlink:href="#DejaVuSerif-121"/>
     <use x="886.429688" xlink:href="#DejaVuSerif-32"/>
     <use x="918.216797" xlink:href="#DejaVuSerif-111"/>
     <use x="978.421875" xlink:href="#DejaVuSerif-102"/>
     <use x="1015.433594" xlink:href="#DejaVuSerif-32"/>
     <use x="1047.220703" xlink:href="#DejaVuSerif-65"/>
     <use x="1119.4375" xlink:href="#DejaVuSerif-81"/>
     <use x="1201.419922" xlink:href="#DejaVuSerif-80"/>
     <use x="1268.705078" xlink:href="#DejaVuSerif-52"/>
     <use x="1332.328125" xlink:href="#DejaVuSerif-32"/>
     <use x="1364.115234" xlink:href="#DejaVuSerif-115"/>
     <use x="1415.433594" xlink:href="#DejaVuSerif-116"/>
     <use x="1455.619141" xlink:href="#DejaVuSerif-97"/>
     <use x="1515.238281" xlink:href="#DejaVuSerif-105"/>
     <use x="1547.220703" xlink:href="#DejaVuSerif-110"/>
     <use x="1611.625" xlink:href="#DejaVuSerif-105"/>
     <use x="1643.607422" xlink:href="#DejaVuSerif-110"/>
     <use x="1708.011719" xlink:href="#DejaVuSerif-103"/>
    </g>
   </g>
   <g id="legend_1">
    <g id="patch_7">
     <path d="M 505.279688 142.434375 
L 637.5 142.434375 
Q 640.5 142.434375 640.5 139.434375 
L 640.5 96.9 
Q 640.5 93.9 637.5 93.9 
L 505.279688 93.9 
Q 502.279688 93.9 502.279688 96.9 
L 502.279688 139.434375 
Q 502.279688 142.434375 505.279688 142.434375 
z
" style="fill:#ffffff;opacity:0.8;stroke:#cccccc;stroke-linejoin:miter;"/>
    </g>
    <g id="line2d_16">
     <path d="M 508.279688 106.047656 
L 538.279688 106.047656 
" style="fill:none;stroke:#ff0000;stroke-linecap:square;stroke-width:1.5;"/>
    </g>
    <g id="line2d_17"/>
    <g id="text_17">
     <!-- Mean day -->
     <g transform="translate(550.279688 111.297656)scale(0.15 -0.15)">
      <defs>
       <path d="M 9.8125 72.90625 
L 24.515625 72.90625 
L 43.109375 23.296875 
L 61.8125 72.90625 
L 76.515625 72.90625 
L 76.515625 0 
L 66.890625 0 
L 66.890625 64.015625 
L 48.09375 14.015625 
L 38.1875 14.015625 
L 19.390625 64.015625 
L 19.390625 0 
L 9.8125 0 
z
" id="DejaVuSans-77"/>
       <path d="M 56.203125 29.59375 
L 56.203125 25.203125 
L 14.890625 25.203125 
Q 15.484375 15.921875 20.484375 11.0625 
Q 25.484375 6.203125 34.421875 6.203125 
Q 39.59375 6.203125 44.453125 7.46875 
Q 49.3125 8.734375 54.109375 11.28125 
L 54.109375 2.78125 
Q 49.265625 0.734375 44.1875 -0.34375 
Q 39.109375 -1.421875 33.890625 -1.421875 
Q 20.796875 -1.421875 13.15625 6.1875 
Q 5.515625 13.8125 5.515625 26.8125 
Q 5.515625 40.234375 12.765625 48.109375 
Q 20.015625 56 32.328125 56 
Q 43.359375 56 49.78125 48.890625 
Q 56.203125 41.796875 56.203125 29.59375 
z
M 47.21875 32.234375 
Q 47.125 39.59375 43.09375 43.984375 
Q 39.0625 48.390625 32.421875 48.390625 
Q 24.90625 48.390625 20.390625 44.140625 
Q 15.875 39.890625 15.1875 32.171875 
z
" id="DejaVuSans-101"/>
       <path d="M 34.28125 27.484375 
Q 23.390625 27.484375 19.1875 25 
Q 14.984375 22.515625 14.984375 16.5 
Q 14.984375 11.71875 18.140625 8.90625 
Q 21.296875 6.109375 26.703125 6.109375 
Q 34.1875 6.109375 38.703125 11.40625 
Q 43.21875 16.703125 43.21875 25.484375 
L 43.21875 27.484375 
z
M 52.203125 31.203125 
L 52.203125 0 
L 43.21875 0 
L 43.21875 8.296875 
Q 40.140625 3.328125 35.546875 0.953125 
Q 30.953125 -1.421875 24.3125 -1.421875 
Q 15.921875 -1.421875 10.953125 3.296875 
Q 6 8.015625 6 15.921875 
Q 6 25.140625 12.171875 29.828125 
Q 18.359375 34.515625 30.609375 34.515625 
L 43.21875 34.515625 
L 43.21875 35.40625 
Q 43.21875 41.609375 39.140625 45 
Q 35.0625 48.390625 27.6875 48.390625 
Q 23 48.390625 18.546875 47.265625 
Q 14.109375 46.140625 10.015625 43.890625 
L 10.015625 52.203125 
Q 14.9375 54.109375 19.578125 55.046875 
Q 24.21875 56 28.609375 56 
Q 40.484375 56 46.34375 49.84375 
Q 52.203125 43.703125 52.203125 31.203125 
z
" id="DejaVuSans-97"/>
       <path d="M 54.890625 33.015625 
L 54.890625 0 
L 45.90625 0 
L 45.90625 32.71875 
Q 45.90625 40.484375 42.875 44.328125 
Q 39.84375 48.1875 33.796875 48.1875 
Q 26.515625 48.1875 22.3125 43.546875 
Q 18.109375 38.921875 18.109375 30.90625 
L 18.109375 0 
L 9.078125 0 
L 9.078125 54.6875 
L 18.109375 54.6875 
L 18.109375 46.1875 
Q 21.34375 51.125 25.703125 53.5625 
Q 30.078125 56 35.796875 56 
Q 45.21875 56 50.046875 50.171875 
Q 54.890625 44.34375 54.890625 33.015625 
z
" id="DejaVuSans-110"/>
       <path id="DejaVuSans-32"/>
       <path d="M 45.40625 46.390625 
L 45.40625 75.984375 
L 54.390625 75.984375 
L 54.390625 0 
L 45.40625 0 
L 45.40625 8.203125 
Q 42.578125 3.328125 38.25 0.953125 
Q 33.9375 -1.421875 27.875 -1.421875 
Q 17.96875 -1.421875 11.734375 6.484375 
Q 5.515625 14.40625 5.515625 27.296875 
Q 5.515625 40.1875 11.734375 48.09375 
Q 17.96875 56 27.875 56 
Q 33.9375 56 38.25 53.625 
Q 42.578125 51.265625 45.40625 46.390625 
z
M 14.796875 27.296875 
Q 14.796875 17.390625 18.875 11.75 
Q 22.953125 6.109375 30.078125 6.109375 
Q 37.203125 6.109375 41.296875 11.75 
Q 45.40625 17.390625 45.40625 27.296875 
Q 45.40625 37.203125 41.296875 42.84375 
Q 37.203125 48.484375 30.078125 48.484375 
Q 22.953125 48.484375 18.875 42.84375 
Q 14.796875 37.203125 14.796875 27.296875 
z
" id="DejaVuSans-100"/>
       <path d="M 32.171875 -5.078125 
Q 28.375 -14.84375 24.75 -17.8125 
Q 21.140625 -20.796875 15.09375 -20.796875 
L 7.90625 -20.796875 
L 7.90625 -13.28125 
L 13.1875 -13.28125 
Q 16.890625 -13.28125 18.9375 -11.515625 
Q 21 -9.765625 23.484375 -3.21875 
L 25.09375 0.875 
L 2.984375 54.6875 
L 12.5 54.6875 
L 29.59375 11.921875 
L 46.6875 54.6875 
L 56.203125 54.6875 
z
" id="DejaVuSans-121"/>
      </defs>
      <use xlink:href="#DejaVuSans-77"/>
      <use x="86.279297" xlink:href="#DejaVuSans-101"/>
      <use x="147.802734" xlink:href="#DejaVuSans-97"/>
      <use x="209.082031" xlink:href="#DejaVuSans-110"/>
      <use x="272.460938" xlink:href="#DejaVuSans-32"/>
      <use x="304.248047" xlink:href="#DejaVuSans-100"/>
      <use x="367.724609" xlink:href="#DejaVuSans-97"/>
      <use x="429.003906" xlink:href="#DejaVuSans-121"/>
     </g>
    </g>
    <g id="line2d_18">
     <path d="M 508.279688 128.064844 
L 538.279688 128.064844 
" style="fill:none;stroke:#0000ff;stroke-linecap:square;stroke-width:1.5;"/>
    </g>
    <g id="line2d_19"/>
    <g id="text_18">
     <!-- Mean night -->
     <g transform="translate(550.279688 133.314844)scale(0.15 -0.15)">
      <defs>
       <path d="M 9.421875 54.6875 
L 18.40625 54.6875 
L 18.40625 0 
L 9.421875 0 
z
M 9.421875 75.984375 
L 18.40625 75.984375 
L 18.40625 64.59375 
L 9.421875 64.59375 
z
" id="DejaVuSans-105"/>
       <path d="M 45.40625 27.984375 
Q 45.40625 37.75 41.375 43.109375 
Q 37.359375 48.484375 30.078125 48.484375 
Q 22.859375 48.484375 18.828125 43.109375 
Q 14.796875 37.75 14.796875 27.984375 
Q 14.796875 18.265625 18.828125 12.890625 
Q 22.859375 7.515625 30.078125 7.515625 
Q 37.359375 7.515625 41.375 12.890625 
Q 45.40625 18.265625 45.40625 27.984375 
z
M 54.390625 6.78125 
Q 54.390625 -7.171875 48.1875 -13.984375 
Q 42 -20.796875 29.203125 -20.796875 
Q 24.46875 -20.796875 20.265625 -20.09375 
Q 16.0625 -19.390625 12.109375 -17.921875 
L 12.109375 -9.1875 
Q 16.0625 -11.328125 19.921875 -12.34375 
Q 23.78125 -13.375 27.78125 -13.375 
Q 36.625 -13.375 41.015625 -8.765625 
Q 45.40625 -4.15625 45.40625 5.171875 
L 45.40625 9.625 
Q 42.625 4.78125 38.28125 2.390625 
Q 33.9375 0 27.875 0 
Q 17.828125 0 11.671875 7.65625 
Q 5.515625 15.328125 5.515625 27.984375 
Q 5.515625 40.671875 11.671875 48.328125 
Q 17.828125 56 27.875 56 
Q 33.9375 56 38.28125 53.609375 
Q 42.625 51.21875 45.40625 46.390625 
L 45.40625 54.6875 
L 54.390625 54.6875 
z
" id="DejaVuSans-103"/>
       <path d="M 54.890625 33.015625 
L 54.890625 0 
L 45.90625 0 
L 45.90625 32.71875 
Q 45.90625 40.484375 42.875 44.328125 
Q 39.84375 48.1875 33.796875 48.1875 
Q 26.515625 48.1875 22.3125 43.546875 
Q 18.109375 38.921875 18.109375 30.90625 
L 18.109375 0 
L 9.078125 0 
L 9.078125 75.984375 
L 18.109375 75.984375 
L 18.109375 46.1875 
Q 21.34375 51.125 25.703125 53.5625 
Q 30.078125 56 35.796875 56 
Q 45.21875 56 50.046875 50.171875 
Q 54.890625 44.34375 54.890625 33.015625 
z
" id="DejaVuSans-104"/>
       <path d="M 18.3125 70.21875 
L 18.3125 54.6875 
L 36.8125 54.6875 
L 36.8125 47.703125 
L 18.3125 47.703125 
L 18.3125 18.015625 
Q 18.3125 11.328125 20.140625 9.421875 
Q 21.96875 7.515625 27.59375 7.515625 
L 36.8125 7.515625 
L 36.8125 0 
L 27.59375 0 
Q 17.1875 0 13.234375 3.875 
Q 9.28125 7.765625 9.28125 18.015625 
L 9.28125 47.703125 
L 2.6875 47.703125 
L 2.6875 54.6875 
L 9.28125 54.6875 
L 9.28125 70.21875 
z
" id="DejaVuSans-116"/>
      </defs>
      <use xlink:href="#DejaVuSans-77"/>
      <use x="86.279297" xlink:href="#DejaVuSans-101"/>
      <use x="147.802734" xlink:href="#DejaVuSans-97"/>
      <use x="209.082031" xlink:href="#DejaVuSans-110"/>
      <use x="272.460938" xlink:href="#DejaVuSans-32"/>
      <use x="304.248047" xlink:href="#DejaVuSans-110"/>
      <use x="367.626953" xlink:href="#DejaVuSans-105"/>
      <use x="395.410156" xlink:href="#DejaVuSans-103"/>
      <use x="458.886719" xlink:href="#DejaVuSans-104"/>
      <use x="522.265625" xlink:href="#DejaVuSans-116"/>
     </g>
    </g>
   </g>
  </g>
 </g>
 <defs>
  <clipPath id="p86aea255b4">
   <rect height="543.6" width="558" x="90" y="86.4"/>
  </clipPath>
 </defs>
</svg>
